<svg xmlns="http://www.w3.org/2000/svg" width="880" height="352" viewBox="0 0 880 352" role="img">
<title>1181 contributions in the last six months</title>
<rect x="0.5" y="0.5" width="879" height="351" rx="14" fill="#ffffff" stroke="#e4e4e8"/>
<text x="44" y="46" font-family="ui-sans-serif,-apple-system,BlinkMacSystemFont,'Segoe UI',Helvetica,Arial,sans-serif" font-size="15" fill="#0f0f12" font-weight="600">1,181 contributions in the last six months</text>
<text x="44" y="66" font-family="ui-sans-serif,-apple-system,BlinkMacSystemFont,'Segoe UI',Helvetica,Arial,sans-serif" font-size="11.5" fill="#6e6e78" font-weight="400">103 active days · longest streak 22 days · busiest day 87 contributions</text>
<text x="64" y="149.96153846153845" font-family="ui-sans-serif,-apple-system,BlinkMacSystemFont,'Segoe UI',Helvetica,Arial,sans-serif" font-size="9.5" fill="#6e6e78" font-weight="400" text-anchor="end">Mon</text>
<text x="64" y="208.4230769230769" font-family="ui-sans-serif,-apple-system,BlinkMacSystemFont,'Segoe UI',Helvetica,Arial,sans-serif" font-size="9.5" fill="#6e6e78" font-weight="400" text-anchor="end">Wed</text>
<text x="64" y="266.8846153846154" font-family="ui-sans-serif,-apple-system,BlinkMacSystemFont,'Segoe UI',Helvetica,Arial,sans-serif" font-size="9.5" fill="#6e6e78" font-weight="400" text-anchor="end">Fri</text>
<rect x="76.00" y="96.00" width="26.23" height="26.23" rx="2.5" fill="#111111"/>
<rect x="76.00" y="125.23" width="26.23" height="26.23" rx="2.5" fill="#ebebee"/>
<rect x="76.00" y="154.46" width="26.23" height="26.23" rx="2.5" fill="#7d7d7d"/>
<rect x="76.00" y="183.69" width="26.23" height="26.23" rx="2.5" fill="#adadad"/>
<rect x="76.00" y="212.92" width="26.23" height="26.23" rx="2.5" fill="#7d7d7d"/>
<rect x="76.00" y="242.15" width="26.23" height="26.23" rx="2.5" fill="#ebebee"/>
<rect x="76.00" y="271.38" width="26.23" height="26.23" rx="2.5" fill="#111111"/>
<rect x="105.23" y="96.00" width="26.23" height="26.23" rx="2.5" fill="#7d7d7d"/>
<rect x="105.23" y="125.23" width="26.23" height="26.23" rx="2.5" fill="#7d7d7d"/>
<rect x="105.23" y="154.46" width="26.23" height="26.23" rx="2.5" fill="#454545"/>
<rect x="105.23" y="183.69" width="26.23" height="26.23" rx="2.5" fill="#111111"/>
<rect x="105.23" y="212.92" width="26.23" height="26.23" rx="2.5" fill="#ebebee"/>
<rect x="105.23" y="242.15" width="26.23" height="26.23" rx="2.5" fill="#ebebee"/>
<rect x="105.23" y="271.38" width="26.23" height="26.23" rx="2.5" fill="#454545"/>
<text x="134.46153846153845" y="86" font-family="ui-sans-serif,-apple-system,BlinkMacSystemFont,'Segoe UI',Helvetica,Arial,sans-serif" font-size="9.5" fill="#6e6e78" font-weight="400">Feb</text>
<rect x="134.46" y="96.00" width="26.23" height="26.23" rx="2.5" fill="#454545"/>
<rect x="134.46" y="125.23" width="26.23" height="26.23" rx="2.5" fill="#454545"/>
<rect x="134.46" y="154.46" width="26.23" height="26.23" rx="2.5" fill="#454545"/>
<rect x="134.46" y="183.69" width="26.23" height="26.23" rx="2.5" fill="#7d7d7d"/>
<rect x="134.46" y="212.92" width="26.23" height="26.23" rx="2.5" fill="#7d7d7d"/>
<rect x="134.46" y="242.15" width="26.23" height="26.23" rx="2.5" fill="#111111"/>
<rect x="134.46" y="271.38" width="26.23" height="26.23" rx="2.5" fill="#adadad"/>
<rect x="163.69" y="96.00" width="26.23" height="26.23" rx="2.5" fill="#111111"/>
<rect x="163.69" y="125.23" width="26.23" height="26.23" rx="2.5" fill="#ebebee"/>
<rect x="163.69" y="154.46" width="26.23" height="26.23" rx="2.5" fill="#ebebee"/>
<rect x="163.69" y="183.69" width="26.23" height="26.23" rx="2.5" fill="#7d7d7d"/>
<rect x="163.69" y="212.92" width="26.23" height="26.23" rx="2.5" fill="#7d7d7d"/>
<rect x="163.69" y="242.15" width="26.23" height="26.23" rx="2.5" fill="#7d7d7d"/>
<rect x="163.69" y="271.38" width="26.23" height="26.23" rx="2.5" fill="#ebebee"/>
<rect x="192.92" y="96.00" width="26.23" height="26.23" rx="2.5" fill="#454545"/>
<rect x="192.92" y="125.23" width="26.23" height="26.23" rx="2.5" fill="#adadad"/>
<rect x="192.92" y="154.46" width="26.23" height="26.23" rx="2.5" fill="#adadad"/>
<rect x="192.92" y="183.69" width="26.23" height="26.23" rx="2.5" fill="#ebebee"/>
<rect x="192.92" y="212.92" width="26.23" height="26.23" rx="2.5" fill="#ebebee"/>
<rect x="192.92" y="242.15" width="26.23" height="26.23" rx="2.5" fill="#ebebee"/>
<rect x="192.92" y="271.38" width="26.23" height="26.23" rx="2.5" fill="#ebebee"/>
<rect x="222.15" y="96.00" width="26.23" height="26.23" rx="2.5" fill="#adadad"/>
<rect x="222.15" y="125.23" width="26.23" height="26.23" rx="2.5" fill="#adadad"/>
<rect x="222.15" y="154.46" width="26.23" height="26.23" rx="2.5" fill="#adadad"/>
<rect x="222.15" y="183.69" width="26.23" height="26.23" rx="2.5" fill="#ebebee"/>
<rect x="222.15" y="212.92" width="26.23" height="26.23" rx="2.5" fill="#7d7d7d"/>
<rect x="222.15" y="242.15" width="26.23" height="26.23" rx="2.5" fill="#adadad"/>
<rect x="222.15" y="271.38" width="26.23" height="26.23" rx="2.5" fill="#ebebee"/>
<text x="251.3846153846154" y="86" font-family="ui-sans-serif,-apple-system,BlinkMacSystemFont,'Segoe UI',Helvetica,Arial,sans-serif" font-size="9.5" fill="#6e6e78" font-weight="400">Mar</text>
<rect x="251.38" y="96.00" width="26.23" height="26.23" rx="2.5" fill="#7d7d7d"/>
<rect x="251.38" y="125.23" width="26.23" height="26.23" rx="2.5" fill="#ebebee"/>
<rect x="251.38" y="154.46" width="26.23" height="26.23" rx="2.5" fill="#7d7d7d"/>
<rect x="251.38" y="183.69" width="26.23" height="26.23" rx="2.5" fill="#ebebee"/>
<rect x="251.38" y="212.92" width="26.23" height="26.23" rx="2.5" fill="#ebebee"/>
<rect x="251.38" y="242.15" width="26.23" height="26.23" rx="2.5" fill="#ebebee"/>
<rect x="251.38" y="271.38" width="26.23" height="26.23" rx="2.5" fill="#adadad"/>
<rect x="280.62" y="96.00" width="26.23" height="26.23" rx="2.5" fill="#ebebee"/>
<rect x="280.62" y="125.23" width="26.23" height="26.23" rx="2.5" fill="#ebebee"/>
<rect x="280.62" y="154.46" width="26.23" height="26.23" rx="2.5" fill="#ebebee"/>
<rect x="280.62" y="183.69" width="26.23" height="26.23" rx="2.5" fill="#7d7d7d"/>
<rect x="280.62" y="212.92" width="26.23" height="26.23" rx="2.5" fill="#ebebee"/>
<rect x="280.62" y="242.15" width="26.23" height="26.23" rx="2.5" fill="#ebebee"/>
<rect x="280.62" y="271.38" width="26.23" height="26.23" rx="2.5" fill="#ebebee"/>
<rect x="309.85" y="96.00" width="26.23" height="26.23" rx="2.5" fill="#ebebee"/>
<rect x="309.85" y="125.23" width="26.23" height="26.23" rx="2.5" fill="#ebebee"/>
<rect x="309.85" y="154.46" width="26.23" height="26.23" rx="2.5" fill="#454545"/>
<rect x="309.85" y="183.69" width="26.23" height="26.23" rx="2.5" fill="#454545"/>
<rect x="309.85" y="212.92" width="26.23" height="26.23" rx="2.5" fill="#ebebee"/>
<rect x="309.85" y="242.15" width="26.23" height="26.23" rx="2.5" fill="#ebebee"/>
<rect x="309.85" y="271.38" width="26.23" height="26.23" rx="2.5" fill="#454545"/>
<rect x="339.08" y="96.00" width="26.23" height="26.23" rx="2.5" fill="#ebebee"/>
<rect x="339.08" y="125.23" width="26.23" height="26.23" rx="2.5" fill="#ebebee"/>
<rect x="339.08" y="154.46" width="26.23" height="26.23" rx="2.5" fill="#ebebee"/>
<rect x="339.08" y="183.69" width="26.23" height="26.23" rx="2.5" fill="#ebebee"/>
<rect x="339.08" y="212.92" width="26.23" height="26.23" rx="2.5" fill="#adadad"/>
<rect x="339.08" y="242.15" width="26.23" height="26.23" rx="2.5" fill="#ebebee"/>
<rect x="339.08" y="271.38" width="26.23" height="26.23" rx="2.5" fill="#7d7d7d"/>
<rect x="368.31" y="96.00" width="26.23" height="26.23" rx="2.5" fill="#adadad"/>
<rect x="368.31" y="125.23" width="26.23" height="26.23" rx="2.5" fill="#ebebee"/>
<rect x="368.31" y="154.46" width="26.23" height="26.23" rx="2.5" fill="#ebebee"/>
<rect x="368.31" y="183.69" width="26.23" height="26.23" rx="2.5" fill="#7d7d7d"/>
<rect x="368.31" y="212.92" width="26.23" height="26.23" rx="2.5" fill="#ebebee"/>
<rect x="368.31" y="242.15" width="26.23" height="26.23" rx="2.5" fill="#adadad"/>
<rect x="368.31" y="271.38" width="26.23" height="26.23" rx="2.5" fill="#ebebee"/>
<text x="397.53846153846155" y="86" font-family="ui-sans-serif,-apple-system,BlinkMacSystemFont,'Segoe UI',Helvetica,Arial,sans-serif" font-size="9.5" fill="#6e6e78" font-weight="400">Apr</text>
<rect x="397.54" y="96.00" width="26.23" height="26.23" rx="2.5" fill="#ebebee"/>
<rect x="397.54" y="125.23" width="26.23" height="26.23" rx="2.5" fill="#ebebee"/>
<rect x="397.54" y="154.46" width="26.23" height="26.23" rx="2.5" fill="#ebebee"/>
<rect x="397.54" y="183.69" width="26.23" height="26.23" rx="2.5" fill="#ebebee"/>
<rect x="397.54" y="212.92" width="26.23" height="26.23" rx="2.5" fill="#ebebee"/>
<rect x="397.54" y="242.15" width="26.23" height="26.23" rx="2.5" fill="#ebebee"/>
<rect x="397.54" y="271.38" width="26.23" height="26.23" rx="2.5" fill="#ebebee"/>
<rect x="426.77" y="96.00" width="26.23" height="26.23" rx="2.5" fill="#ebebee"/>
<rect x="426.77" y="125.23" width="26.23" height="26.23" rx="2.5" fill="#ebebee"/>
<rect x="426.77" y="154.46" width="26.23" height="26.23" rx="2.5" fill="#ebebee"/>
<rect x="426.77" y="183.69" width="26.23" height="26.23" rx="2.5" fill="#adadad"/>
<rect x="426.77" y="212.92" width="26.23" height="26.23" rx="2.5" fill="#adadad"/>
<rect x="426.77" y="242.15" width="26.23" height="26.23" rx="2.5" fill="#ebebee"/>
<rect x="426.77" y="271.38" width="26.23" height="26.23" rx="2.5" fill="#7d7d7d"/>
<rect x="456.00" y="96.00" width="26.23" height="26.23" rx="2.5" fill="#ebebee"/>
<rect x="456.00" y="125.23" width="26.23" height="26.23" rx="2.5" fill="#ebebee"/>
<rect x="456.00" y="154.46" width="26.23" height="26.23" rx="2.5" fill="#ebebee"/>
<rect x="456.00" y="183.69" width="26.23" height="26.23" rx="2.5" fill="#7d7d7d"/>
<rect x="456.00" y="212.92" width="26.23" height="26.23" rx="2.5" fill="#ebebee"/>
<rect x="456.00" y="242.15" width="26.23" height="26.23" rx="2.5" fill="#454545"/>
<rect x="456.00" y="271.38" width="26.23" height="26.23" rx="2.5" fill="#adadad"/>
<rect x="485.23" y="96.00" width="26.23" height="26.23" rx="2.5" fill="#ebebee"/>
<rect x="485.23" y="125.23" width="26.23" height="26.23" rx="2.5" fill="#ebebee"/>
<rect x="485.23" y="154.46" width="26.23" height="26.23" rx="2.5" fill="#7d7d7d"/>
<rect x="485.23" y="183.69" width="26.23" height="26.23" rx="2.5" fill="#ebebee"/>
<rect x="485.23" y="212.92" width="26.23" height="26.23" rx="2.5" fill="#454545"/>
<rect x="485.23" y="242.15" width="26.23" height="26.23" rx="2.5" fill="#ebebee"/>
<rect x="485.23" y="271.38" width="26.23" height="26.23" rx="2.5" fill="#ebebee"/>
<text x="514.4615384615385" y="86" font-family="ui-sans-serif,-apple-system,BlinkMacSystemFont,'Segoe UI',Helvetica,Arial,sans-serif" font-size="9.5" fill="#6e6e78" font-weight="400">May</text>
<rect x="514.46" y="96.00" width="26.23" height="26.23" rx="2.5" fill="#7d7d7d"/>
<rect x="514.46" y="125.23" width="26.23" height="26.23" rx="2.5" fill="#111111"/>
<rect x="514.46" y="154.46" width="26.23" height="26.23" rx="2.5" fill="#111111"/>
<rect x="514.46" y="183.69" width="26.23" height="26.23" rx="2.5" fill="#adadad"/>
<rect x="514.46" y="212.92" width="26.23" height="26.23" rx="2.5" fill="#111111"/>
<rect x="514.46" y="242.15" width="26.23" height="26.23" rx="2.5" fill="#111111"/>
<rect x="514.46" y="271.38" width="26.23" height="26.23" rx="2.5" fill="#454545"/>
<rect x="543.69" y="96.00" width="26.23" height="26.23" rx="2.5" fill="#454545"/>
<rect x="543.69" y="125.23" width="26.23" height="26.23" rx="2.5" fill="#7d7d7d"/>
<rect x="543.69" y="154.46" width="26.23" height="26.23" rx="2.5" fill="#111111"/>
<rect x="543.69" y="183.69" width="26.23" height="26.23" rx="2.5" fill="#7d7d7d"/>
<rect x="543.69" y="212.92" width="26.23" height="26.23" rx="2.5" fill="#111111"/>
<rect x="543.69" y="242.15" width="26.23" height="26.23" rx="2.5" fill="#454545"/>
<rect x="543.69" y="271.38" width="26.23" height="26.23" rx="2.5" fill="#111111"/>
<rect x="572.92" y="96.00" width="26.23" height="26.23" rx="2.5" fill="#111111"/>
<rect x="572.92" y="125.23" width="26.23" height="26.23" rx="2.5" fill="#adadad"/>
<rect x="572.92" y="154.46" width="26.23" height="26.23" rx="2.5" fill="#adadad"/>
<rect x="572.92" y="183.69" width="26.23" height="26.23" rx="2.5" fill="#adadad"/>
<rect x="572.92" y="212.92" width="26.23" height="26.23" rx="2.5" fill="#111111"/>
<rect x="572.92" y="242.15" width="26.23" height="26.23" rx="2.5" fill="#454545"/>
<rect x="572.92" y="271.38" width="26.23" height="26.23" rx="2.5" fill="#454545"/>
<rect x="602.15" y="96.00" width="26.23" height="26.23" rx="2.5" fill="#7d7d7d"/>
<rect x="602.15" y="125.23" width="26.23" height="26.23" rx="2.5" fill="#ebebee"/>
<rect x="602.15" y="154.46" width="26.23" height="26.23" rx="2.5" fill="#adadad"/>
<rect x="602.15" y="183.69" width="26.23" height="26.23" rx="2.5" fill="#adadad"/>
<rect x="602.15" y="212.92" width="26.23" height="26.23" rx="2.5" fill="#454545"/>
<rect x="602.15" y="242.15" width="26.23" height="26.23" rx="2.5" fill="#454545"/>
<rect x="602.15" y="271.38" width="26.23" height="26.23" rx="2.5" fill="#adadad"/>
<rect x="631.38" y="96.00" width="26.23" height="26.23" rx="2.5" fill="#adadad"/>
<rect x="631.38" y="125.23" width="26.23" height="26.23" rx="2.5" fill="#ebebee"/>
<rect x="631.38" y="154.46" width="26.23" height="26.23" rx="2.5" fill="#adadad"/>
<rect x="631.38" y="183.69" width="26.23" height="26.23" rx="2.5" fill="#adadad"/>
<rect x="631.38" y="212.92" width="26.23" height="26.23" rx="2.5" fill="#7d7d7d"/>
<rect x="631.38" y="242.15" width="26.23" height="26.23" rx="2.5" fill="#454545"/>
<rect x="631.38" y="271.38" width="26.23" height="26.23" rx="2.5" fill="#ebebee"/>
<text x="660.6153846153846" y="86" font-family="ui-sans-serif,-apple-system,BlinkMacSystemFont,'Segoe UI',Helvetica,Arial,sans-serif" font-size="9.5" fill="#6e6e78" font-weight="400">Jun</text>
<rect x="660.62" y="96.00" width="26.23" height="26.23" rx="2.5" fill="#ebebee"/>
<rect x="660.62" y="125.23" width="26.23" height="26.23" rx="2.5" fill="#7d7d7d"/>
<rect x="660.62" y="154.46" width="26.23" height="26.23" rx="2.5" fill="#ebebee"/>
<rect x="660.62" y="183.69" width="26.23" height="26.23" rx="2.5" fill="#ebebee"/>
<rect x="660.62" y="212.92" width="26.23" height="26.23" rx="2.5" fill="#adadad"/>
<rect x="660.62" y="242.15" width="26.23" height="26.23" rx="2.5" fill="#111111"/>
<rect x="660.62" y="271.38" width="26.23" height="26.23" rx="2.5" fill="#ebebee"/>
<rect x="689.85" y="96.00" width="26.23" height="26.23" rx="2.5" fill="#ebebee"/>
<rect x="689.85" y="125.23" width="26.23" height="26.23" rx="2.5" fill="#7d7d7d"/>
<rect x="689.85" y="154.46" width="26.23" height="26.23" rx="2.5" fill="#454545"/>
<rect x="689.85" y="183.69" width="26.23" height="26.23" rx="2.5" fill="#111111"/>
<rect x="689.85" y="212.92" width="26.23" height="26.23" rx="2.5" fill="#111111"/>
<rect x="689.85" y="242.15" width="26.23" height="26.23" rx="2.5" fill="#454545"/>
<rect x="689.85" y="271.38" width="26.23" height="26.23" rx="2.5" fill="#ebebee"/>
<rect x="719.08" y="96.00" width="26.23" height="26.23" rx="2.5" fill="#ebebee"/>
<rect x="719.08" y="125.23" width="26.23" height="26.23" rx="2.5" fill="#7d7d7d"/>
<rect x="719.08" y="154.46" width="26.23" height="26.23" rx="2.5" fill="#ebebee"/>
<rect x="719.08" y="183.69" width="26.23" height="26.23" rx="2.5" fill="#111111"/>
<rect x="719.08" y="212.92" width="26.23" height="26.23" rx="2.5" fill="#7d7d7d"/>
<rect x="719.08" y="242.15" width="26.23" height="26.23" rx="2.5" fill="#111111"/>
<rect x="719.08" y="271.38" width="26.23" height="26.23" rx="2.5" fill="#ebebee"/>
<rect x="748.31" y="96.00" width="26.23" height="26.23" rx="2.5" fill="#ebebee"/>
<rect x="748.31" y="125.23" width="26.23" height="26.23" rx="2.5" fill="#ebebee"/>
<rect x="748.31" y="154.46" width="26.23" height="26.23" rx="2.5" fill="#7d7d7d"/>
<rect x="748.31" y="183.69" width="26.23" height="26.23" rx="2.5" fill="#454545"/>
<rect x="748.31" y="212.92" width="26.23" height="26.23" rx="2.5" fill="#111111"/>
<rect x="748.31" y="242.15" width="26.23" height="26.23" rx="2.5" fill="#454545"/>
<rect x="748.31" y="271.38" width="26.23" height="26.23" rx="2.5" fill="#454545"/>
<text x="777.5384615384615" y="86" font-family="ui-sans-serif,-apple-system,BlinkMacSystemFont,'Segoe UI',Helvetica,Arial,sans-serif" font-size="9.5" fill="#6e6e78" font-weight="400">Jul</text>
<rect x="777.54" y="96.00" width="26.23" height="26.23" rx="2.5" fill="#adadad"/>
<rect x="777.54" y="125.23" width="26.23" height="26.23" rx="2.5" fill="#454545"/>
<rect x="777.54" y="154.46" width="26.23" height="26.23" rx="2.5" fill="#ebebee"/>
<rect x="777.54" y="183.69" width="26.23" height="26.23" rx="2.5" fill="#ebebee"/>
<rect x="777.54" y="212.92" width="26.23" height="26.23" rx="2.5" fill="#ebebee"/>
<rect x="777.54" y="242.15" width="26.23" height="26.23" rx="2.5" fill="#ebebee"/>
<rect x="777.54" y="271.38" width="26.23" height="26.23" rx="2.5" fill="#ebebee"/>
<rect x="806.77" y="96.00" width="26.23" height="26.23" rx="2.5" fill="#ebebee"/>
<rect x="806.77" y="125.23" width="26.23" height="26.23" rx="2.5" fill="#ebebee"/>
<rect x="806.77" y="154.46" width="26.23" height="26.23" rx="2.5" fill="#adadad"/>
<rect x="806.77" y="183.69" width="26.23" height="26.23" rx="2.5" fill="#111111"/>
<rect x="806.77" y="212.92" width="26.23" height="26.23" rx="2.5" fill="#ebebee"/>
<rect x="806.77" y="242.15" width="26.23" height="26.23" rx="2.5" fill="#adadad"/>
<text x="655.8461538461538" y="331.61538461538464" font-family="ui-sans-serif,-apple-system,BlinkMacSystemFont,'Segoe UI',Helvetica,Arial,sans-serif" font-size="9.5" fill="#6e6e78" font-weight="400" text-anchor="end">Less</text>
<rect x="661.85" y="322.62" width="26.23" height="26.23" rx="2.5" fill="#ebebee"/>
<rect x="691.08" y="322.62" width="26.23" height="26.23" rx="2.5" fill="#adadad"/>
<rect x="720.31" y="322.62" width="26.23" height="26.23" rx="2.5" fill="#7d7d7d"/>
<rect x="749.54" y="322.62" width="26.23" height="26.23" rx="2.5" fill="#454545"/>
<rect x="778.77" y="322.62" width="26.23" height="26.23" rx="2.5" fill="#111111"/>
<text x="836" y="331.61538461538464" font-family="ui-sans-serif,-apple-system,BlinkMacSystemFont,'Segoe UI',Helvetica,Arial,sans-serif" font-size="9.5" fill="#6e6e78" font-weight="400" text-anchor="end">More</text>
</svg>
