<svg xmlns="http://www.w3.org/2000/svg" width="880" height="664" viewBox="0 0 880 664" role="img">
<title>Stack</title>
<rect x="0.5" y="0.5" width="879" height="663" rx="14" fill="#101012" stroke="#26262a"/>
<text x="44" y="44" font-family="ui-sans-serif,-apple-system,BlinkMacSystemFont,'Segoe UI',Helvetica,Arial,sans-serif" font-size="12" fill="#fafafa" font-weight="600">Stack</text>
<text x="836" y="44" font-family="ui-sans-serif,-apple-system,BlinkMacSystemFont,'Segoe UI',Helvetica,Arial,sans-serif" font-size="10.5" fill="#8a8a92" font-weight="400" text-anchor="end">hands-on experience — not all of it lives in these repos</text>
<text x="44" y="66" font-family="ui-sans-serif,-apple-system,BlinkMacSystemFont,'Segoe UI',Helvetica,Arial,sans-serif" font-size="10.5" fill="#8a8a92" font-weight="600" letter-spacing="1.2">Product</text>
<rect x="44.0" y="80.0" width="106.5" height="32" rx="9" fill="#1c1c1f" stroke="#26262a"/>
<path d="M1.125 0C.502 0 0 .502 0 1.125v21.75C0 23.498.502 24 1.125 24h21.75c.623 0 1.125-.502 1.125-1.125V1.125C24 .502 23.498 0 22.875 0zm17.363 9.75c.612 0 1.154.037 1.627.111a6.38 6.38 0 0 1 1.306.34v2.458a3.95 3.95 0 0 0-.643-.361 5.093 5.093 0 0 0-.717-.26 5.453 5.453 0 0 0-1.426-.2c-.3 0-.573.028-.819.086a2.1 2.1 0 0 0-.623.242c-.17.104-.3.229-.393.374a.888.888 0 0 0-.14.49c0 .196.053.373.156.529.104.156.252.304.443.444s.423.276.696.41c.273.135.582.274.926.416.47.197.892.407 1.266.628.374.222.695.473.963.753.268.279.472.598.614.957.142.359.214.776.214 1.253 0 .657-.125 1.21-.373 1.656a3.033 3.033 0 0 1-1.012 1.085 4.38 4.38 0 0 1-1.487.596c-.566.12-1.163.18-1.79.18a9.916 9.916 0 0 1-1.84-.164 5.544 5.544 0 0 1-1.512-.493v-2.63a5.033 5.033 0 0 0 3.237 1.2c.333 0 .624-.03.872-.09.249-.06.456-.144.623-.25.166-.108.29-.234.373-.38a1.023 1.023 0 0 0-.074-1.089 2.12 2.12 0 0 0-.537-.5 5.597 5.597 0 0 0-.807-.444 27.72 27.72 0 0 0-1.007-.436c-.918-.383-1.602-.852-2.053-1.405-.45-.553-.676-1.222-.676-2.005 0-.614.123-1.141.369-1.582.246-.441.58-.804 1.004-1.089a4.494 4.494 0 0 1 1.47-.629 7.536 7.536 0 0 1 1.77-.201zm-15.113.188h9.563v2.166H9.506v9.646H6.789v-9.646H3.375z" fill="#3178C6" transform="translate(56.00 88.50) scale(0.6250)"/>
<text x="78" y="100.0" font-family="ui-sans-serif,-apple-system,BlinkMacSystemFont,'Segoe UI',Helvetica,Arial,sans-serif" font-size="11.5" fill="#fafafa" font-weight="500">TypeScript</text>
<rect x="158.5" y="80.0" width="78.5" height="32" rx="9" fill="#1c1c1f" stroke="#26262a"/>
<path d="M14.23 12.004a2.236 2.236 0 0 1-2.235 2.236 2.236 2.236 0 0 1-2.236-2.236 2.236 2.236 0 0 1 2.235-2.236 2.236 2.236 0 0 1 2.236 2.236zm2.648-10.69c-1.346 0-3.107.96-4.888 2.622-1.78-1.653-3.542-2.602-4.887-2.602-.41 0-.783.093-1.106.278-1.375.793-1.683 3.264-.973 6.365C1.98 8.917 0 10.42 0 12.004c0 1.59 1.99 3.097 5.043 4.03-.704 3.113-.39 5.588.988 6.38.32.187.69.275 1.102.275 1.345 0 3.107-.96 4.888-2.624 1.78 1.654 3.542 2.603 4.887 2.603.41 0 .783-.09 1.106-.275 1.374-.792 1.683-3.263.973-6.365C22.02 15.096 24 13.59 24 12.004c0-1.59-1.99-3.097-5.043-4.032.704-3.11.39-5.587-.988-6.38-.318-.184-.688-.277-1.092-.278zm-.005 1.09v.006c.225 0 .406.044.558.127.666.382.955 1.835.73 3.704-.054.46-.142.945-.25 1.44-.96-.236-2.006-.417-3.107-.534-.66-.905-1.345-1.727-2.035-2.447 1.592-1.48 3.087-2.292 4.105-2.295zm-9.77.02c1.012 0 2.514.808 4.11 2.28-.686.72-1.37 1.537-2.02 2.442-1.107.117-2.154.298-3.113.538-.112-.49-.195-.964-.254-1.42-.23-1.868.054-3.32.714-3.707.19-.09.4-.127.563-.132zm4.882 3.05c.455.468.91.992 1.36 1.564-.44-.02-.89-.034-1.345-.034-.46 0-.915.01-1.36.034.44-.572.895-1.096 1.345-1.565zM12 8.1c.74 0 1.477.034 2.202.093.406.582.802 1.203 1.183 1.86.372.64.71 1.29 1.018 1.946-.308.655-.646 1.31-1.013 1.95-.38.66-.773 1.288-1.18 1.87-.728.063-1.466.098-2.21.098-.74 0-1.477-.035-2.202-.093-.406-.582-.802-1.204-1.183-1.86-.372-.64-.71-1.29-1.018-1.946.303-.657.646-1.313 1.013-1.954.38-.66.773-1.286 1.18-1.868.728-.064 1.466-.098 2.21-.098zm-3.635.254c-.24.377-.48.763-.704 1.16-.225.39-.435.782-.635 1.174-.265-.656-.49-1.31-.676-1.947.64-.15 1.315-.283 2.015-.386zm7.26 0c.695.103 1.365.23 2.006.387-.18.632-.405 1.282-.66 1.933-.2-.39-.41-.783-.64-1.174-.225-.392-.465-.774-.705-1.146zm3.063.675c.484.15.944.317 1.375.498 1.732.74 2.852 1.708 2.852 2.476-.005.768-1.125 1.74-2.857 2.475-.42.18-.88.342-1.355.493-.28-.958-.646-1.956-1.1-2.98.45-1.017.81-2.01 1.085-2.964zm-13.395.004c.278.96.645 1.957 1.1 2.98-.45 1.017-.812 2.01-1.086 2.964-.484-.15-.944-.318-1.37-.5-1.732-.737-2.852-1.706-2.852-2.474 0-.768 1.12-1.742 2.852-2.476.42-.18.88-.342 1.356-.494zm11.678 4.28c.265.657.49 1.312.676 1.948-.64.157-1.316.29-2.016.39.24-.375.48-.762.705-1.158.225-.39.435-.788.636-1.18zm-9.945.02c.2.392.41.783.64 1.175.23.39.465.772.705 1.143-.695-.102-1.365-.23-2.006-.386.18-.63.406-1.282.66-1.933zM17.92 16.32c.112.493.2.968.254 1.423.23 1.868-.054 3.32-.714 3.708-.147.09-.338.128-.563.128-1.012 0-2.514-.807-4.11-2.28.686-.72 1.37-1.536 2.02-2.44 1.107-.118 2.154-.3 3.113-.54zm-11.83.01c.96.234 2.006.415 3.107.532.66.905 1.345 1.727 2.035 2.446-1.595 1.483-3.092 2.295-4.11 2.295-.22-.005-.406-.05-.553-.132-.666-.38-.955-1.834-.73-3.703.054-.46.142-.944.25-1.438zm4.56.64c.44.02.89.034 1.345.034.46 0 .915-.01 1.36-.034-.44.572-.895 1.095-1.345 1.565-.455-.47-.91-.993-1.36-1.565z" fill="#61DAFB" transform="translate(170.53 88.50) scale(0.6250)"/>
<text x="192.535" y="100.0" font-family="ui-sans-serif,-apple-system,BlinkMacSystemFont,'Segoe UI',Helvetica,Arial,sans-serif" font-size="11.5" fill="#fafafa" font-weight="500">React</text>
<rect x="245.0" y="80.0" width="86.3" height="32" rx="9" fill="#1c1c1f" stroke="#26262a"/>
<path d="M18.665 21.978C16.758 23.255 14.465 24 12 24 5.377 24 0 18.623 0 12S5.377 0 12 0s12 5.377 12 12c0 3.583-1.574 6.801-4.067 9.001L9.219 7.2H7.2v9.596h1.615V9.251l9.85 12.727Zm-3.332-8.533 1.6 2.061V7.2h-1.6v6.245Z" fill="#fafafa" transform="translate(257.01 88.50) scale(0.6250)"/>
<text x="279.01" y="100.0" font-family="ui-sans-serif,-apple-system,BlinkMacSystemFont,'Segoe UI',Helvetica,Arial,sans-serif" font-size="11.5" fill="#fafafa" font-weight="500">Next.js</text>
<rect x="339.3" y="80.0" width="76.1" height="32" rx="9" fill="#1c1c1f" stroke="#26262a"/>
<path d="M8.358 20.162c-1.186-1.07-1.532-3.316-1.038-4.944.856 1.026 2.043 1.352 3.272 1.535 1.897.283 3.76.177 5.522-.678.202-.098.388-.229.608-.36.166.473.209.95.151 1.437-.14 1.185-.738 2.1-1.688 2.794-.38.277-.782.525-1.175.787-1.205.804-1.531 1.747-1.078 3.119l.044.148a3.158 3.158 0 0 1-1.407-1.188 3.31 3.31 0 0 1-.544-1.815c-.004-.32-.004-.642-.048-.958-.106-.769-.472-1.113-1.161-1.133-.707-.02-1.267.411-1.415 1.09-.012.053-.028.104-.045.165h.002zm-5.961-4.445s3.24-1.575 6.49-1.575l2.451-7.565c.092-.366.36-.614.662-.614.302 0 .57.248.662.614l2.45 7.565c3.85 0 6.491 1.575 6.491 1.575L16.088.727C15.93.285 15.663 0 15.303 0H8.697c-.36 0-.615.285-.784.727l-5.516 14.99z" fill="#BC52EE" transform="translate(351.31 88.50) scale(0.6250)"/>
<text x="373.305" y="100.0" font-family="ui-sans-serif,-apple-system,BlinkMacSystemFont,'Segoe UI',Helvetica,Arial,sans-serif" font-size="11.5" fill="#fafafa" font-weight="500">Astro</text>
<rect x="423.4" y="80.0" width="69.7" height="32" rx="9" fill="#1c1c1f" stroke="#26262a"/>
<path d="M13.056 23.238a.57.57 0 0 1-1.02-.355v-5.202c0-.63-.512-1.143-1.144-1.143H5.148a.57.57 0 0 1-.464-.903l3.777-5.29c.54-.753 0-1.804-.93-1.804H.57a.574.574 0 0 1-.543-.746.6.6 0 0 1 .08-.157L5.008.78a.57.57 0 0 1 .467-.24h14.589a.57.57 0 0 1 .466.903l-3.778 5.29c-.54.755 0 1.806.93 1.806h5.745c.238 0 .424.138.513.322a.56.56 0 0 1-.063.603z" fill="#9135FF" transform="translate(435.37 88.50) scale(0.6250)"/>
<text x="457.365" y="100.0" font-family="ui-sans-serif,-apple-system,BlinkMacSystemFont,'Segoe UI',Helvetica,Arial,sans-serif" font-size="11.5" fill="#fafafa" font-weight="500">Vite</text>
<rect x="501.1" y="80.0" width="96.9" height="32" rx="9" fill="#1c1c1f" stroke="#26262a"/>
<path d="M12.001,4.8c-3.2,0-5.2,1.6-6,4.8c1.2-1.6,2.6-2.2,4.2-1.8c0.913,0.228,1.565,0.89,2.288,1.624 C13.666,10.618,15.027,12,18.001,12c3.2,0,5.2-1.6,6-4.8c-1.2,1.6-2.6,2.2-4.2,1.8c-0.913-0.228-1.565-0.89-2.288-1.624 C16.337,6.182,14.976,4.8,12.001,4.8z M6.001,12c-3.2,0-5.2,1.6-6,4.8c1.2-1.6,2.6-2.2,4.2-1.8c0.913,0.228,1.565,0.89,2.288,1.624 c1.177,1.194,2.538,2.576,5.512,2.576c3.2,0,5.2-1.6,6-4.8c-1.2,1.6-2.6,2.2-4.2,1.8c-0.913-0.228-1.565-0.89-2.288-1.624 C10.337,13.382,8.976,12,6.001,12z" fill="#06B6D4" transform="translate(513.10 88.50) scale(0.6250)"/>
<text x="535.1" y="100.0" font-family="ui-sans-serif,-apple-system,BlinkMacSystemFont,'Segoe UI',Helvetica,Arial,sans-serif" font-size="11.5" fill="#fafafa" font-weight="500">Tailwind</text>
<rect x="606.0" y="80.0" width="81.3" height="32" rx="9" fill="#1c1c1f" stroke="#26262a"/>
<path d="M1.5 0h21l-1.91 21.563L11.977 24l-8.564-2.438L1.5 0zm7.031 9.75l-.232-2.718 10.059.003.23-2.622L5.412 4.41l.698 8.01h9.126l-.326 3.426-2.91.804-2.955-.81-.188-2.11H6.248l.33 4.171L12 19.351l5.379-1.443.744-8.157H8.531z" fill="#E34F26" transform="translate(617.98 88.50) scale(0.6250)"/>
<text x="639.975" y="100.0" font-family="ui-sans-serif,-apple-system,BlinkMacSystemFont,'Segoe UI',Helvetica,Arial,sans-serif" font-size="11.5" fill="#fafafa" font-weight="500">HTML</text>
<rect x="695.3" y="80.0" width="70.8" height="32" rx="9" fill="#1c1c1f" stroke="#26262a"/>
<path d="M0 0v20.16A3.84 3.84 0 0 0 3.84 24h16.32A3.84 3.84 0 0 0 24 20.16V3.84A3.84 3.84 0 0 0 20.16 0Zm14.256 13.08c1.56 0 2.28 1.08 2.304 2.64h-1.608c.024-.288-.048-.6-.144-.84-.096-.192-.288-.264-.552-.264-.456 0-.696.264-.696.84-.024.576.288.888.768 1.08.72.288 1.608.744 1.92 1.296q.432.648.432 1.656c0 1.608-.912 2.592-2.496 2.592-1.656 0-2.4-1.032-2.424-2.688h1.68c0 .792.264 1.176.792 1.176.264 0 .456-.072.552-.24.192-.312.24-1.176-.048-1.512-.312-.408-.912-.6-1.32-.816q-.828-.396-1.224-.936c-.24-.36-.36-.888-.36-1.536 0-1.44.936-2.472 2.424-2.448m5.4 0c1.584 0 2.304 1.08 2.328 2.64h-1.608c0-.288-.048-.6-.168-.84-.096-.192-.264-.264-.528-.264-.48 0-.72.264-.72.84s.288.888.792 1.08c.696.288 1.608.744 1.92 1.296.264.432.408.984.408 1.656.024 1.608-.888 2.592-2.472 2.592-1.68 0-2.424-1.056-2.448-2.688h1.68c0 .744.264 1.176.792 1.176.264 0 .456-.072.552-.24.216-.312.264-1.176-.048-1.512-.288-.408-.888-.6-1.32-.816-.552-.264-.96-.576-1.2-.936s-.36-.888-.36-1.536c-.024-1.44.912-2.472 2.4-2.448m-11.031.018c.711-.006 1.419.198 1.839.63.432.432.672 1.128.648 1.992H9.336c.024-.456-.096-.792-.432-.96-.312-.144-.768-.048-.888.24-.12.264-.192.576-.168.864v3.504c0 .744.264 1.128.768 1.128a.65.65 0 0 0 .552-.264c.168-.24.192-.552.168-.84h1.776c.096 1.632-.984 2.712-2.568 2.688-1.536 0-2.496-.864-2.472-2.472v-4.032c0-.816.24-1.44.696-1.848.432-.408 1.146-.624 1.857-.63" fill="#663399" transform="translate(707.33 88.50) scale(0.6250)"/>
<text x="729.325" y="100.0" font-family="ui-sans-serif,-apple-system,BlinkMacSystemFont,'Segoe UI',Helvetica,Arial,sans-serif" font-size="11.5" fill="#fafafa" font-weight="500">CSS</text>
<rect x="44.0" y="120.0" width="74.6" height="32" rx="9" fill="#1c1c1f" stroke="#26262a"/>
<path d="M0 20.084c.043.53.23 1.063.718 1.778.58.849 1.576 1.315 2.303.567.49-.505 5.794-9.776 8.35-13.29a.761.761 0 011.248 0c2.556 3.514 7.86 12.785 8.35 13.29.727.748 1.723.282 2.303-.567.57-.835.728-1.42.728-2.046 0-.426-8.26-15.798-9.092-17.078-.8-1.23-1.044-1.498-2.397-1.542h-1.032c-1.353.044-1.597.311-2.398 1.542C8.267 3.991.33 18.758 0 19.77Z" fill="#fafafa" transform="translate(56.00 128.50) scale(0.6250)"/>
<text x="78" y="140.0" font-family="ui-sans-serif,-apple-system,BlinkMacSystemFont,'Segoe UI',Helvetica,Arial,sans-serif" font-size="11.5" fill="#fafafa" font-weight="500">Expo</text>
<text x="44" y="168" font-family="ui-sans-serif,-apple-system,BlinkMacSystemFont,'Segoe UI',Helvetica,Arial,sans-serif" font-size="10.5" fill="#8a8a92" font-weight="600" letter-spacing="1.2">Backend</text>
<rect x="44.0" y="182.0" width="61.9" height="32" rx="9" fill="#1c1c1f" stroke="#26262a"/>
<path d="M1.811 10.231c-.047 0-.058-.023-.035-.059l.246-.315c.023-.035.081-.058.128-.058h4.172c.046 0 .058.035.035.07l-.199.303c-.023.036-.082.07-.117.07zM.047 11.306c-.047 0-.059-.023-.035-.058l.245-.316c.023-.035.082-.058.129-.058h5.328c.047 0 .07.035.058.07l-.093.28c-.012.047-.058.07-.105.07zm2.828 1.075c-.047 0-.059-.035-.035-.07l.163-.292c.023-.035.07-.07.117-.07h2.337c.047 0 .07.035.07.082l-.023.28c0 .047-.047.082-.082.082zm12.129-2.36c-.736.187-1.239.327-1.963.514-.176.046-.187.058-.34-.117-.174-.199-.303-.327-.548-.444-.737-.362-1.45-.257-2.115.175-.795.514-1.204 1.274-1.192 2.22.011.935.654 1.706 1.577 1.835.795.105 1.46-.175 1.987-.77.105-.13.198-.27.315-.434H10.47c-.245 0-.304-.152-.222-.35.152-.362.432-.97.596-1.274a.315.315 0 01.292-.187h4.253c-.023.316-.023.631-.07.947a4.983 4.983 0 01-.958 2.29c-.841 1.11-1.94 1.8-3.33 1.986-1.145.152-2.209-.07-3.143-.77-.865-.655-1.356-1.52-1.484-2.595-.152-1.274.222-2.419.993-3.424.83-1.086 1.928-1.776 3.272-2.02 1.098-.2 2.15-.07 3.096.571.62.41 1.063.97 1.356 1.648.07.105.023.164-.117.2m3.868 6.461c-1.064-.024-2.034-.328-2.852-1.029a3.665 3.665 0 01-1.262-2.255c-.21-1.32.152-2.489.947-3.529.853-1.122 1.881-1.706 3.272-1.95 1.192-.21 2.314-.095 3.33.595.923.63 1.496 1.484 1.648 2.605.198 1.578-.257 2.863-1.344 3.962-.771.783-1.718 1.273-2.805 1.495-.315.06-.63.07-.934.106zm2.78-4.72c-.011-.153-.011-.27-.034-.387-.21-1.157-1.274-1.81-2.384-1.554-1.087.245-1.788.935-2.045 2.033-.21.912.234 1.835 1.075 2.21.643.28 1.285.244 1.905-.07.923-.48 1.425-1.228 1.484-2.233z" fill="#00ADD8" transform="translate(56.00 190.50) scale(0.6250)"/>
<text x="78" y="202.0" font-family="ui-sans-serif,-apple-system,BlinkMacSystemFont,'Segoe UI',Helvetica,Arial,sans-serif" font-size="11.5" fill="#fafafa" font-weight="500">Go</text>
<rect x="113.9" y="182.0" width="55.1" height="32" rx="9" fill="#1c1c1f" stroke="#26262a"/>
<text x="125.91499999999999" y="202.0" font-family="ui-sans-serif,-apple-system,BlinkMacSystemFont,'Segoe UI',Helvetica,Arial,sans-serif" font-size="11.5" fill="#fafafa" font-weight="500">gRPC</text>
<rect x="177.0" y="182.0" width="84.8" height="32" rx="9" fill="#1c1c1f" stroke="#26262a"/>
<path d="M14.25.18l.9.2.73.26.59.3.45.32.34.34.25.34.16.33.1.3.04.26.02.2-.01.13V8.5l-.05.63-.13.55-.21.46-.26.38-.3.31-.33.25-.35.19-.35.14-.33.1-.3.07-.26.04-.21.02H8.77l-.69.05-.59.14-.5.22-.41.27-.33.32-.27.35-.2.36-.15.37-.1.35-.07.32-.04.27-.02.21v3.06H3.17l-.21-.03-.28-.07-.32-.12-.35-.18-.36-.26-.36-.36-.35-.46-.32-.59-.28-.73-.21-.88-.14-1.05-.05-1.23.06-1.22.16-1.04.24-.87.32-.71.36-.57.4-.44.42-.33.42-.24.4-.16.36-.1.32-.05.24-.01h.16l.06.01h8.16v-.83H6.18l-.01-2.75-.02-.37.05-.34.11-.31.17-.28.25-.26.31-.23.38-.2.44-.18.51-.15.58-.12.64-.1.71-.06.77-.04.84-.02 1.27.05zm-6.3 1.98l-.23.33-.08.41.08.41.23.34.33.22.41.09.41-.09.33-.22.23-.34.08-.41-.08-.41-.23-.33-.33-.22-.41-.09-.41.09zm13.09 3.95l.28.06.32.12.35.18.36.27.36.35.35.47.32.59.28.73.21.88.14 1.04.05 1.23-.06 1.23-.16 1.04-.24.86-.32.71-.36.57-.4.45-.42.33-.42.24-.4.16-.36.09-.32.05-.24.02-.16-.01h-8.22v.82h5.84l.01 2.76.02.36-.05.34-.11.31-.17.29-.25.25-.31.24-.38.2-.44.17-.51.15-.58.13-.64.09-.71.07-.77.04-.84.01-1.27-.04-1.07-.14-.9-.2-.73-.25-.59-.3-.45-.33-.34-.34-.25-.34-.16-.33-.1-.3-.04-.25-.02-.2.01-.13v-5.34l.05-.64.13-.54.21-.46.26-.38.3-.32.33-.24.35-.2.35-.14.33-.1.3-.06.26-.04.21-.02.13-.01h5.84l.69-.05.59-.14.5-.21.41-.28.33-.32.27-.35.2-.36.15-.36.1-.35.07-.32.04-.28.02-.21V6.07h2.09l.14.01zm-6.47 14.25l-.23.33-.08.41.08.41.23.33.33.23.41.08.41-.08.33-.23.23-.33.08-.41-.08-.41-.23-.33-.33-.23-.41-.08-.41.08z" fill="#3776AB" transform="translate(189.01 190.50) scale(0.6250)"/>
<text x="211.01" y="202.0" font-family="ui-sans-serif,-apple-system,BlinkMacSystemFont,'Segoe UI',Helvetica,Arial,sans-serif" font-size="11.5" fill="#fafafa" font-weight="500">Python</text>
<rect x="269.8" y="182.0" width="95.0" height="32" rx="9" fill="#1c1c1f" stroke="#26262a"/>
<path d="M23.5594 14.7228a.5269.5269 0 0 0-.0563-.1191c-.139-.2632-.4768-.3418-1.0074-.2321-1.6533.3411-2.2935.1312-2.5256-.0191 1.342-2.0482 2.445-4.522 3.0411-6.8297.2714-1.0507.7982-3.5237.1222-4.7316a1.5641 1.5641 0 0 0-.1509-.235C21.6931.9086 19.8007.0248 17.5099.0005c-1.4947-.0158-2.7705.3461-3.1161.4794a9.449 9.449 0 0 0-.5159-.0816 8.044 8.044 0 0 0-1.3114-.1278c-1.1822-.0184-2.2038.2642-3.0498.8406-.8573-.3211-4.7888-1.645-7.2219.0788C.9359 2.1526.3086 3.8733.4302 6.3043c.0409.818.5069 3.334 1.2423 5.7436.4598 1.5065.9387 2.7019 1.4334 3.582.553.9942 1.1259 1.5933 1.7143 1.7895.4474.1491 1.1327.1441 1.8581-.7279.8012-.9635 1.5903-1.8258 1.9446-2.2069.4351.2355.9064.3625 1.39.3772a.0569.0569 0 0 0 .0004.0041 11.0312 11.0312 0 0 0-.2472.3054c-.3389.4302-.4094.5197-1.5002.7443-.3102.064-1.1344.2339-1.1464.8115-.0025.1224.0329.2309.0919.3268.2269.4231.9216.6097 1.015.6331 1.3345.3335 2.5044.092 3.3714-.6787-.017 2.231.0775 4.4174.3454 5.0874.2212.5529.7618 1.9045 2.4692 1.9043.2505 0 .5263-.0291.8296-.0941 1.7819-.3821 2.5557-1.1696 2.855-2.9059.1503-.8707.4016-2.8753.5388-4.1012.0169-.0703.0357-.1207.057-.1362.0007-.0005.0697-.0471.4272.0307a.3673.3673 0 0 0 .0443.0068l.2539.0223.0149.001c.8468.0384 1.9114-.1426 2.5312-.4308.6438-.2988 1.8057-1.0323 1.5951-1.6698zM2.371 11.8765c-.7435-2.4358-1.1779-4.8851-1.2123-5.5719-.1086-2.1714.4171-3.6829 1.5623-4.4927 1.8367-1.2986 4.8398-.5408 6.108-.13-.0032.0032-.0066.0061-.0098.0094-2.0238 2.044-1.9758 5.536-1.9708 5.7495-.0002.0823.0066.1989.0162.3593.0348.5873.0996 1.6804-.0735 2.9184-.1609 1.1504.1937 2.2764.9728 3.0892.0806.0841.1648.1631.2518.2374-.3468.3714-1.1004 1.1926-1.9025 2.1576-.5677.6825-.9597.5517-1.0886.5087-.3919-.1307-.813-.5871-1.2381-1.3223-.4796-.839-.9635-2.0317-1.4155-3.5126zm6.0072 5.0871c-.1711-.0428-.3271-.1132-.4322-.1772.0889-.0394.2374-.0902.4833-.1409 1.2833-.2641 1.4815-.4506 1.9143-1.0002.0992-.126.2116-.2687.3673-.4426a.3549.3549 0 0 0 .0737-.1298c.1708-.1513.2724-.1099.4369-.0417.156.0646.3078.26.3695.4752.0291.1016.0619.2945-.0452.4444-.9043 1.2658-2.2216 1.2494-3.1676 1.0128zm2.094-3.988-.0525.141c-.133.3566-.2567.6881-.3334 1.003-.6674-.0021-1.3168-.2872-1.8105-.8024-.6279-.6551-.9131-1.5664-.7825-2.5004.1828-1.3079.1153-2.4468.079-3.0586-.005-.0857-.0095-.1607-.0122-.2199.2957-.2621 1.6659-.9962 2.6429-.7724.4459.1022.7176.4057.8305.928.5846 2.7038.0774 3.8307-.3302 4.7363-.084.1866-.1633.3629-.2311.5454zm7.3637 4.5725c-.0169.1768-.0358.376-.0618.5959l-.146.4383a.3547.3547 0 0 0-.0182.1077c-.0059.4747-.054.6489-.115.8693-.0634.2292-.1353.4891-.1794 1.0575-.11 1.4143-.8782 2.2267-2.4172 2.5565-1.5155.3251-1.7843-.4968-2.0212-1.2217a6.5824 6.5824 0 0 0-.0769-.2266c-.2154-.5858-.1911-1.4119-.1574-2.5551.0165-.5612-.0249-1.9013-.3302-2.6462.0044-.2932.0106-.5909.019-.8918a.3529.3529 0 0 0-.0153-.1126 1.4927 1.4927 0 0 0-.0439-.208c-.1226-.4283-.4213-.7866-.7797-.9351-.1424-.059-.4038-.1672-.7178-.0869.067-.276.1831-.5875.309-.9249l.0529-.142c.0595-.16.134-.3257.213-.5012.4265-.9476 1.0106-2.2453.3766-5.1772-.2374-1.0981-1.0304-1.6343-2.2324-1.5098-.7207.0746-1.3799.3654-1.7088.5321a5.6716 5.6716 0 0 0-.1958.1041c.0918-1.1064.4386-3.1741 1.7357-4.4823a4.0306 4.0306 0 0 1 .3033-.276.3532.3532 0 0 0 .1447-.0644c.7524-.5706 1.6945-.8506 2.802-.8325.4091.0067.8017.0339 1.1742.081 1.939.3544 3.2439 1.4468 4.0359 2.3827.8143.9623 1.2552 1.9315 1.4312 2.4543-1.3232-.1346-2.2234.1268-2.6797.779-.9926 1.4189.543 4.1729 1.2811 5.4964.1353.2426.2522.4522.2889.5413.2403.5825.5515.9713.7787 1.2552.0696.087.1372.1714.1885.245-.4008.1155-1.1208.3825-1.0552 1.717-.0123.1563-.0423.4469-.0834.8148-.0461.2077-.0702.4603-.0994.7662zm.8905-1.6211c-.0405-.8316.2691-.9185.5967-1.0105a2.8566 2.8566 0 0 0 .135-.0406 1.202 1.202 0 0 0 .1342.103c.5703.3765 1.5823.4213 3.0068.1344-.2016.1769-.5189.3994-.9533.6011-.4098.1903-1.0957.333-1.7473.3636-.7197.0336-1.0859-.0807-1.1721-.151zm.5695-9.2712c-.0059.3508-.0542.6692-.1054 1.0017-.055.3576-.112.7274-.1264 1.1762-.0142.4368.0404.8909.0932 1.3301.1066.887.216 1.8003-.2075 2.7014a3.5272 3.5272 0 0 1-.1876-.3856c-.0527-.1276-.1669-.3326-.3251-.6162-.6156-1.1041-2.0574-3.6896-1.3193-4.7446.3795-.5427 1.3408-.5661 2.1781-.463zm.2284 7.0137a12.3762 12.3762 0 0 0-.0853-.1074l-.0355-.0444c.7262-1.1995.5842-2.3862.4578-3.4385-.0519-.4318-.1009-.8396-.0885-1.2226.0129-.4061.0666-.7543.1185-1.0911.0639-.415.1288-.8443.1109-1.3505.0134-.0531.0188-.1158.0118-.1902-.0457-.4855-.5999-1.938-1.7294-3.253-.6076-.7073-1.4896-1.4972-2.6889-2.0395.5251-.1066 1.2328-.2035 2.0244-.1859 2.0515.0456 3.6746.8135 4.8242 2.2824a.908.908 0 0 1 .0667.1002c.7231 1.3556-.2762 6.2751-2.9867 10.5405zm-8.8166-6.1162c-.025.1794-.3089.4225-.6211.4225a.5821.5821 0 0 1-.0809-.0056c-.1873-.026-.3765-.144-.5059-.3156-.0458-.0605-.1203-.178-.1055-.2844.0055-.0401.0261-.0985.0925-.1488.1182-.0894.3518-.1226.6096-.0867.3163.0441.6426.1938.6113.4186zm7.9305-.4114c.0111.0792-.049.201-.1531.3102-.0683.0717-.212.1961-.4079.2232a.5456.5456 0 0 1-.075.0052c-.2935 0-.5414-.2344-.5607-.3717-.024-.1765.2641-.3106.5611-.352.297-.0414.6111.0088.6356.1851z" fill="#4169E1" transform="translate(281.81 190.50) scale(0.6250)"/>
<text x="303.81" y="202.0" font-family="ui-sans-serif,-apple-system,BlinkMacSystemFont,'Segoe UI',Helvetica,Arial,sans-serif" font-size="11.5" fill="#fafafa" font-weight="500">Postgres</text>
<rect x="372.8" y="182.0" width="99.9" height="32" rx="9" fill="#1c1c1f" stroke="#26262a"/>
<path d="M11.9 1.036c-.015-.986-1.26-1.41-1.874-.637L.764 12.05C-.33 13.427.65 15.455 2.409 15.455h9.579l.113 7.51c.014.985 1.259 1.408 1.873.636l9.262-11.653c1.093-1.375.113-3.403-1.645-3.403h-9.642z" fill="#3FCF8E" transform="translate(384.85 190.50) scale(0.6250)"/>
<text x="406.845" y="202.0" font-family="ui-sans-serif,-apple-system,BlinkMacSystemFont,'Segoe UI',Helvetica,Arial,sans-serif" font-size="11.5" fill="#fafafa" font-weight="500">Supabase</text>
<rect x="480.7" y="182.0" width="84.7" height="32" rx="9" fill="#1c1c1f" stroke="#26262a"/>
<text x="492.71000000000004" y="202.0" font-family="ui-sans-serif,-apple-system,BlinkMacSystemFont,'Segoe UI',Helvetica,Arial,sans-serif" font-size="11.5" fill="#fafafa" font-weight="500">DynamoDB</text>
<rect x="573.4" y="182.0" width="94.9" height="32" rx="9" fill="#1c1c1f" stroke="#26262a"/>
<text x="585.36" y="202.0" font-family="ui-sans-serif,-apple-system,BlinkMacSystemFont,'Segoe UI',Helvetica,Arial,sans-serif" font-size="11.5" fill="#fafafa" font-weight="500">DocumentDB</text>
<rect x="676.2" y="182.0" width="78.4" height="32" rx="9" fill="#1c1c1f" stroke="#26262a"/>
<path d="M12.004 0H.404v18.807h9.938l1.714 1.602v-.026L15.966 24v-5.193h7.63V0H12.003zm7.578 14.45H15.38L6.898 6.519v7.93H4.116V4.376h4.349l8.344 7.784V4.375h2.773V14.45z" fill="#27AAE1" transform="translate(688.25 190.50) scale(0.6250)"/>
<text x="710.245" y="202.0" font-family="ui-sans-serif,-apple-system,BlinkMacSystemFont,'Segoe UI',Helvetica,Arial,sans-serif" font-size="11.5" fill="#fafafa" font-weight="500">NATS</text>
<rect x="44.0" y="222.0" width="80.0" height="32" rx="9" fill="#1c1c1f" stroke="#26262a"/>
<path d="M13.976 9.15c-2.172-.806-3.356-1.426-3.356-2.409 0-.831.683-1.305 1.901-1.305 2.227 0 4.515.858 6.09 1.631l.89-5.494C18.252.975 15.697 0 12.165 0 9.667 0 7.589.654 6.104 1.872 4.56 3.147 3.757 4.992 3.757 7.218c0 4.039 2.467 5.76 6.476 7.219 2.585.92 3.445 1.574 3.445 2.583 0 .98-.84 1.545-2.354 1.545-1.875 0-4.965-.921-6.99-2.109l-.9 5.555C5.175 22.99 8.385 24 11.714 24c2.641 0 4.843-.624 6.328-1.813 1.664-1.305 2.525-3.236 2.525-5.732 0-4.128-2.524-5.851-6.594-7.305h.003z" fill="#635BFF" transform="translate(56.00 230.50) scale(0.6250)"/>
<text x="78" y="242.0" font-family="ui-sans-serif,-apple-system,BlinkMacSystemFont,'Segoe UI',Helvetica,Arial,sans-serif" font-size="11.5" fill="#fafafa" font-weight="500">Stripe</text>
<text x="44" y="270" font-family="ui-sans-serif,-apple-system,BlinkMacSystemFont,'Segoe UI',Helvetica,Arial,sans-serif" font-size="10.5" fill="#8a8a92" font-weight="600" letter-spacing="1.2">Infrastructure</text>
<rect x="44.0" y="284.0" width="73.8" height="32" rx="9" fill="#1c1c1f" stroke="#26262a"/>
<path d="M84.7447 111.961C84.7447 114.395 85.0079 116.368 85.4684 117.816C85.9947 119.263 86.6526 120.842 87.5737 122.553C87.9026 123.079 88.0342 123.605 88.0342 124.066C88.0342 124.724 87.6395 125.382 86.7842 126.039L82.6395 128.803C82.0474 129.197 81.4553 129.395 80.929 129.395C80.2711 129.395 79.6132 129.066 78.9553 128.474C78.0342 127.487 77.2447 126.434 76.5869 125.382C75.929 124.263 75.2711 123.013 74.5474 121.5C69.4158 127.553 62.9684 130.579 55.2053 130.579C49.679 130.579 45.2711 129 42.0474 125.842C38.8237 122.684 37.179 118.474 37.179 113.211C37.179 107.618 39.1526 103.079 43.1658 99.6579C47.179 96.2368 52.5079 94.5263 59.2842 94.5263C61.5211 94.5263 63.8237 94.7237 66.2579 95.0526C68.6921 95.3816 71.1921 95.9079 73.8237 96.5V91.6974C73.8237 86.6974 72.7711 83.2105 70.7316 81.1711C68.6263 79.1316 65.0737 78.1447 60.0079 78.1447C57.7053 78.1447 55.3368 78.4079 52.9026 79C50.4684 79.5921 48.1 80.3158 45.7974 81.2368C44.7447 81.6974 43.9553 81.9605 43.4947 82.0921C43.0342 82.2237 42.7053 82.2895 42.4421 82.2895C41.5211 82.2895 41.0605 81.6316 41.0605 80.25V77.0263C41.0605 75.9737 41.1921 75.1842 41.5211 74.7237C41.85 74.2632 42.4421 73.8026 43.3632 73.3421C45.6658 72.1579 48.429 71.1711 51.6526 70.3816C54.8763 69.5263 58.2974 69.1316 61.9158 69.1316C69.7447 69.1316 75.4684 70.9079 79.1526 74.4605C82.7711 78.0132 84.6132 83.4079 84.6132 90.6447V111.961H84.7447ZM58.0342 121.961C60.2053 121.961 62.4421 121.566 64.8105 120.776C67.179 119.987 69.2842 118.539 71.0605 116.566C72.1132 115.316 72.9026 113.934 73.2974 112.355C73.6921 110.776 73.9553 108.868 73.9553 106.632V103.868C72.0474 103.408 70.0079 103.013 67.9026 102.75C65.7974 102.487 63.7579 102.355 61.7184 102.355C57.3105 102.355 54.0868 103.211 51.9158 104.987C49.7447 106.763 48.6921 109.263 48.6921 112.553C48.6921 115.645 49.4816 117.947 51.1263 119.526C52.7053 121.171 55.0079 121.961 58.0342 121.961ZM110.863 129.066C109.679 129.066 108.889 128.868 108.363 128.408C107.837 128.013 107.376 127.092 106.982 125.842L91.5211 74.9868C91.1263 73.6711 90.929 72.8158 90.929 72.3553C90.929 71.3026 91.4553 70.7105 92.5079 70.7105H98.9553C100.205 70.7105 101.061 70.9079 101.521 71.3684C102.047 71.7632 102.442 72.6842 102.837 73.9342L113.889 117.487L124.153 73.9342C124.482 72.6184 124.876 71.7632 125.403 71.3684C125.929 70.9737 126.85 70.7105 128.034 70.7105H133.297C134.547 70.7105 135.403 70.9079 135.929 71.3684C136.455 71.7632 136.916 72.6842 137.179 73.9342L147.574 118.013L158.955 73.9342C159.35 72.6184 159.811 71.7632 160.271 71.3684C160.797 70.9737 161.653 70.7105 162.837 70.7105H168.955C170.008 70.7105 170.6 71.2368 170.6 72.3553C170.6 72.6842 170.534 73.0132 170.468 73.4079C170.403 73.8026 170.271 74.3289 170.008 75.0526L154.153 125.908C153.758 127.224 153.297 128.079 152.771 128.474C152.245 128.868 151.389 129.132 150.271 129.132H144.613C143.363 129.132 142.508 128.934 141.982 128.474C141.455 128.013 140.995 127.158 140.732 125.842L130.534 83.4079L120.403 125.776C120.074 127.092 119.679 127.947 119.153 128.408C118.626 128.868 117.705 129.066 116.521 129.066H110.863ZM195.403 130.842C191.982 130.842 188.561 130.447 185.271 129.658C181.982 128.868 179.416 128.013 177.705 127.026C176.653 126.434 175.929 125.776 175.666 125.184C175.403 124.592 175.271 123.934 175.271 123.342V119.987C175.271 118.605 175.797 117.947 176.784 117.947C177.179 117.947 177.574 118.013 177.968 118.145C178.363 118.276 178.955 118.539 179.613 118.803C181.85 119.789 184.284 120.579 186.85 121.105C189.482 121.632 192.047 121.895 194.679 121.895C198.824 121.895 202.047 121.171 204.284 119.724C206.521 118.276 207.705 116.171 207.705 113.474C207.705 111.632 207.113 110.118 205.929 108.868C204.745 107.618 202.508 106.5 199.284 105.447L189.745 102.487C184.942 100.974 181.389 98.7368 179.218 95.7763C177.047 92.8816 175.929 89.6579 175.929 86.2368C175.929 83.4737 176.521 81.0395 177.705 78.9342C178.889 76.8289 180.468 74.9868 182.442 73.5395C184.416 72.0263 186.653 70.9079 189.284 70.1184C191.916 69.3289 194.679 69 197.574 69C199.021 69 200.534 69.0658 201.982 69.2632C203.495 69.4605 204.876 69.7237 206.258 69.9868C207.574 70.3158 208.824 70.6447 210.008 71.0395C211.192 71.4342 212.113 71.8289 212.771 72.2237C213.692 72.75 214.35 73.2763 214.745 73.8684C215.139 74.3947 215.337 75.1184 215.337 76.0395V79.1316C215.337 80.5132 214.811 81.2368 213.824 81.2368C213.297 81.2368 212.442 80.9737 211.324 80.4474C207.574 78.7368 203.363 77.8816 198.692 77.8816C194.942 77.8816 191.982 78.4737 189.942 79.7237C187.903 80.9737 186.85 82.8816 186.85 85.5789C186.85 87.4211 187.508 89 188.824 90.25C190.139 91.5 192.574 92.75 196.061 93.8684L205.403 96.8289C210.139 98.3421 213.561 100.447 215.6 103.145C217.639 105.842 218.626 108.934 218.626 112.355C218.626 115.184 218.034 117.75 216.916 119.987C215.732 122.224 214.153 124.197 212.113 125.776C210.074 127.421 207.639 128.605 204.811 129.461C201.85 130.382 198.758 130.842 195.403 130.842Z" fill="#fafafa" transform="translate(53.92 290.42) scale(0.0748)"/><path d="M207.837 162.816C186.192 178.803 154.745 187.29 127.705 187.29C89.8105 187.29 55.6658 173.276 29.8763 149.987C27.8369 148.145 29.679 145.645 32.1132 147.092C60.0079 163.276 94.4158 173.079 130.008 173.079C154.021 173.079 180.403 168.079 204.679 157.816C208.297 156.171 211.389 160.184 207.837 162.816Z" fill="#FF9900" transform="translate(53.92 290.42) scale(0.0748)"/><path d="M216.85 152.553C214.087 149 198.561 150.842 191.521 151.697C189.416 151.961 189.087 150.118 190.995 148.737C203.363 140.053 223.692 142.553 226.061 145.447C228.429 148.408 225.403 168.737 213.824 178.474C212.047 179.987 210.337 179.197 211.126 177.224C213.758 170.711 219.613 156.039 216.85 152.553Z" fill="#FF9900" transform="translate(53.92 290.42) scale(0.0748)"/>
<text x="78" y="304.0" font-family="ui-sans-serif,-apple-system,BlinkMacSystemFont,'Segoe UI',Helvetica,Arial,sans-serif" font-size="11.5" fill="#fafafa" font-weight="500">AWS</text>
<rect x="125.8" y="284.0" width="48.8" height="32" rx="9" fill="#1c1c1f" stroke="#26262a"/>
<text x="137.76" y="304.0" font-family="ui-sans-serif,-apple-system,BlinkMacSystemFont,'Segoe UI',Helvetica,Arial,sans-serif" font-size="11.5" fill="#fafafa" font-weight="500">EC2</text>
<rect x="182.5" y="284.0" width="69.5" height="32" rx="9" fill="#1c1c1f" stroke="#26262a"/>
<text x="194.53" y="304.0" font-family="ui-sans-serif,-apple-system,BlinkMacSystemFont,'Segoe UI',Helvetica,Arial,sans-serif" font-size="11.5" fill="#fafafa" font-weight="500">Lambda</text>
<rect x="260.0" y="284.0" width="48.8" height="32" rx="9" fill="#1c1c1f" stroke="#26262a"/>
<text x="272.0" y="304.0" font-family="ui-sans-serif,-apple-system,BlinkMacSystemFont,'Segoe UI',Helvetica,Arial,sans-serif" font-size="11.5" fill="#fafafa" font-weight="500">EKS</text>
<rect x="316.8" y="284.0" width="41.2" height="32" rx="9" fill="#1c1c1f" stroke="#26262a"/>
<text x="328.77" y="304.0" font-family="ui-sans-serif,-apple-system,BlinkMacSystemFont,'Segoe UI',Helvetica,Arial,sans-serif" font-size="11.5" fill="#fafafa" font-weight="500">S3</text>
<rect x="365.9" y="284.0" width="51.8" height="32" rx="9" fill="#1c1c1f" stroke="#26262a"/>
<text x="377.95" y="304.0" font-family="ui-sans-serif,-apple-system,BlinkMacSystemFont,'Segoe UI',Helvetica,Arial,sans-serif" font-size="11.5" fill="#fafafa" font-weight="500">EMR</text>
<rect x="425.7" y="284.0" width="107.7" height="32" rx="9" fill="#1c1c1f" stroke="#26262a"/>
<path d="M10.204 14.35l.007.01-.999 2.413a5.171 5.171 0 0 1-2.075-2.597l2.578-.437.004.005a.44.44 0 0 1 .484.606zm-.833-2.129a.44.44 0 0 0 .173-.756l.002-.011L7.585 9.7a5.143 5.143 0 0 0-.73 3.255l2.514-.725.002-.009zm1.145-1.98a.44.44 0 0 0 .699-.337l.01-.005.15-2.62a5.144 5.144 0 0 0-3.01 1.442l2.147 1.523.004-.002zm.76 2.75l.723.349.722-.347.18-.78-.5-.623h-.804l-.5.623.179.779zm1.5-3.095a.44.44 0 0 0 .7.336l.008.003 2.134-1.513a5.188 5.188 0 0 0-2.992-1.442l.148 2.615.002.001zm10.876 5.97l-5.773 7.181a1.6 1.6 0 0 1-1.248.594l-9.261.003a1.6 1.6 0 0 1-1.247-.596l-5.776-7.18a1.583 1.583 0 0 1-.307-1.34L2.1 5.573c.108-.47.425-.864.863-1.073L11.305.513a1.606 1.606 0 0 1 1.385 0l8.345 3.985c.438.209.755.604.863 1.073l2.062 8.955c.108.47-.005.963-.308 1.34zm-3.289-2.057c-.042-.01-.103-.026-.145-.034-.174-.033-.315-.025-.479-.038-.35-.037-.638-.067-.895-.148-.105-.04-.18-.165-.216-.216l-.201-.059a6.45 6.45 0 0 0-.105-2.332 6.465 6.465 0 0 0-.936-2.163c.052-.047.15-.133.177-.159.008-.09.001-.183.094-.282.197-.185.444-.338.743-.522.142-.084.273-.137.415-.242.032-.024.076-.062.11-.089.24-.191.295-.52.123-.736-.172-.216-.506-.236-.745-.045-.034.027-.08.062-.111.088-.134.116-.217.23-.33.35-.246.25-.45.458-.673.609-.097.056-.239.037-.303.033l-.19.135a6.545 6.545 0 0 0-4.146-2.003l-.012-.223c-.065-.062-.143-.115-.163-.25-.022-.268.015-.557.057-.905.023-.163.061-.298.068-.475.001-.04-.001-.099-.001-.142 0-.306-.224-.555-.5-.555-.275 0-.499.249-.499.555l.001.014c0 .041-.002.092 0 .128.006.177.044.312.067.475.042.348.078.637.056.906a.545.545 0 0 1-.162.258l-.012.211a6.424 6.424 0 0 0-4.166 2.003 8.373 8.373 0 0 1-.18-.128c-.09.012-.18.04-.297-.029-.223-.15-.427-.358-.673-.608-.113-.12-.195-.234-.329-.349-.03-.026-.077-.062-.111-.088a.594.594 0 0 0-.348-.132.481.481 0 0 0-.398.176c-.172.216-.117.546.123.737l.007.005.104.083c.142.105.272.159.414.242.299.185.546.338.743.522.076.082.09.226.1.288l.16.143a6.462 6.462 0 0 0-1.02 4.506l-.208.06c-.055.072-.133.184-.215.217-.257.081-.546.11-.895.147-.164.014-.305.006-.48.039-.037.007-.09.02-.133.03l-.004.002-.007.002c-.295.071-.484.342-.423.608.061.267.349.429.645.365l.007-.001.01-.003.129-.029c.17-.046.294-.113.448-.172.33-.118.604-.217.87-.256.112-.009.23.069.288.101l.217-.037a6.5 6.5 0 0 0 2.88 3.596l-.09.218c.033.084.069.199.044.282-.097.252-.263.517-.452.813-.091.136-.185.242-.268.399-.02.037-.045.095-.064.134-.128.275-.034.591.213.71.248.12.556-.007.69-.282v-.002c.02-.039.046-.09.062-.127.07-.162.094-.301.144-.458.132-.332.205-.68.387-.897.05-.06.13-.082.215-.105l.113-.205a6.453 6.453 0 0 0 4.609.012l.106.192c.086.028.18.042.256.155.136.232.229.507.342.84.05.156.074.295.145.457.016.037.043.09.062.129.133.276.442.402.69.282.247-.118.341-.435.213-.71-.02-.039-.045-.096-.065-.134-.083-.156-.177-.261-.268-.398-.19-.296-.346-.541-.443-.793-.04-.13.007-.21.038-.294-.018-.022-.059-.144-.083-.202a6.499 6.499 0 0 0 2.88-3.622c.064.01.176.03.213.038.075-.05.144-.114.28-.104.266.039.54.138.87.256.154.06.277.128.448.173.036.01.088.019.13.028l.009.003.007.001c.297.064.584-.098.645-.365.06-.266-.128-.537-.423-.608zM16.4 9.701l-1.95 1.746v.005a.44.44 0 0 0 .173.757l.003.01 2.526.728a5.199 5.199 0 0 0-.108-1.674A5.208 5.208 0 0 0 16.4 9.7zm-4.013 5.325a.437.437 0 0 0-.404-.232.44.44 0 0 0-.372.233h-.002l-1.268 2.292a5.164 5.164 0 0 0 3.326.003l-1.27-2.296h-.01zm1.888-1.293a.44.44 0 0 0-.27.036.44.44 0 0 0-.214.572l-.003.004 1.01 2.438a5.15 5.15 0 0 0 2.081-2.615l-2.6-.44-.004.005z" fill="#326CE5" transform="translate(437.71 292.50) scale(0.6250)"/>
<text x="459.71" y="304.0" font-family="ui-sans-serif,-apple-system,BlinkMacSystemFont,'Segoe UI',Helvetica,Arial,sans-serif" font-size="11.5" fill="#fafafa" font-weight="500">Kubernetes</text>
<rect x="541.4" y="284.0" width="84.8" height="32" rx="9" fill="#1c1c1f" stroke="#26262a"/>
<path d="M13.983 11.078h2.119a.186.186 0 00.186-.185V9.006a.186.186 0 00-.186-.186h-2.119a.185.185 0 00-.185.185v1.888c0 .102.083.185.185.185m-2.954-5.43h2.118a.186.186 0 00.186-.186V3.574a.186.186 0 00-.186-.185h-2.118a.185.185 0 00-.185.185v1.888c0 .102.082.185.185.185m0 2.716h2.118a.187.187 0 00.186-.186V6.29a.186.186 0 00-.186-.185h-2.118a.185.185 0 00-.185.185v1.887c0 .102.082.185.185.186m-2.93 0h2.12a.186.186 0 00.184-.186V6.29a.185.185 0 00-.185-.185H8.1a.185.185 0 00-.185.185v1.887c0 .102.083.185.185.186m-2.964 0h2.119a.186.186 0 00.185-.186V6.29a.185.185 0 00-.185-.185H5.136a.186.186 0 00-.186.185v1.887c0 .102.084.185.186.186m5.893 2.715h2.118a.186.186 0 00.186-.185V9.006a.186.186 0 00-.186-.186h-2.118a.185.185 0 00-.185.185v1.888c0 .102.082.185.185.185m-2.93 0h2.12a.185.185 0 00.184-.185V9.006a.185.185 0 00-.184-.186h-2.12a.185.185 0 00-.184.185v1.888c0 .102.083.185.185.185m-2.964 0h2.119a.185.185 0 00.185-.185V9.006a.185.185 0 00-.184-.186h-2.12a.186.186 0 00-.186.186v1.887c0 .102.084.185.186.185m-2.92 0h2.12a.185.185 0 00.184-.185V9.006a.185.185 0 00-.184-.186h-2.12a.185.185 0 00-.184.185v1.888c0 .102.082.185.185.185M23.763 9.89c-.065-.051-.672-.51-1.954-.51-.338.001-.676.03-1.01.087-.248-1.7-1.653-2.53-1.716-2.566l-.344-.199-.226.327c-.284.438-.49.922-.612 1.43-.23.97-.09 1.882.403 2.661-.595.332-1.55.413-1.744.42H.751a.751.751 0 00-.75.748 11.376 11.376 0 00.692 4.062c.545 1.428 1.355 2.48 2.41 3.124 1.18.723 3.1 1.137 5.275 1.137.983.003 1.963-.086 2.93-.266a12.248 12.248 0 003.823-1.389c.98-.567 1.86-1.288 2.61-2.136 1.252-1.418 1.998-2.997 2.553-4.4h.221c1.372 0 2.215-.549 2.68-1.009.309-.293.55-.65.707-1.046l.098-.288Z" fill="#2496ED" transform="translate(553.39 292.50) scale(0.6250)"/>
<text x="575.395" y="304.0" font-family="ui-sans-serif,-apple-system,BlinkMacSystemFont,'Segoe UI',Helvetica,Arial,sans-serif" font-size="11.5" fill="#fafafa" font-weight="500">Docker</text>
<rect x="634.2" y="284.0" width="100.8" height="32" rx="9" fill="#1c1c1f" stroke="#26262a"/>
<path d="M1.44 0v7.575l6.561 3.79V3.787zm21.12 4.227l-6.561 3.791v7.574l6.56-3.787zM8.72 4.23v7.575l6.561 3.787V8.018zm0 8.405v7.575L15.28 24v-7.578z" fill="#844FBA" transform="translate(646.19 292.50) scale(0.6250)"/>
<text x="668.1949999999999" y="304.0" font-family="ui-sans-serif,-apple-system,BlinkMacSystemFont,'Segoe UI',Helvetica,Arial,sans-serif" font-size="11.5" fill="#fafafa" font-weight="500">Terraform</text>
<rect x="44.0" y="324.0" width="94.5" height="32" rx="9" fill="#1c1c1f" stroke="#26262a"/>
<path d="M12.337 0c-.475 0-.861 1.016-.861 2.269 0 .527.069 1.011.183 1.396a8.514 8.514 0 0 0-3.961 1.22 5.229 5.229 0 0 0-.595-1.093c-.606-.866-1.34-1.436-1.79-1.43a.381.381 0 0 0-.217.066c-.39.273-.123 1.326.596 2.353.267.381.559.705.84.948a8.683 8.683 0 0 0-1.528 1.716h1.734a7.179 7.179 0 0 1 5.381-2.421 7.18 7.18 0 0 1 5.382 2.42h1.733a8.687 8.687 0 0 0-1.32-1.53c.35-.249.735-.643 1.078-1.133.719-1.027.986-2.08.596-2.353a.382.382 0 0 0-.217-.065c-.45-.007-1.184.563-1.79 1.43a4.897 4.897 0 0 0-.676 1.325 8.52 8.52 0 0 0-3.899-1.42c.12-.39.193-.887.193-1.429 0-1.253-.386-2.269-.862-2.269zM1.624 9.443v5.162h1.358v-1.968h1.64v1.968h1.357V9.443H4.62v1.838H2.98V9.443zm5.912 0v5.162h3.21v-1.108H8.893v-.95h1.64v-1.142h-1.64v-.84h1.853V9.443zm4.698 0v5.162h3.218v-1.362h-1.86v-3.8zm4.706 0v5.162h1.364v-2.643l1.357 1.225 1.35-1.232v2.65h1.365V9.443h-.614l-2.1 1.914-2.109-1.914zm-11.82 7.28a8.688 8.688 0 0 0 1.412 1.548 5.206 5.206 0 0 0-.841.948c-.719 1.027-.985 2.08-.596 2.353.39.273 1.289-.338 2.007-1.364a5.23 5.23 0 0 0 .595-1.092 8.514 8.514 0 0 0 3.961 1.219 5.01 5.01 0 0 0-.183 1.396c0 1.253.386 2.269.861 2.269.476 0 .862-1.016.862-2.269 0-.542-.072-1.04-.193-1.43a8.52 8.52 0 0 0 3.9-1.42c.121.4.352.865.675 1.327.719 1.026 1.617 1.637 2.007 1.364.39-.273.123-1.326-.596-2.353-.343-.49-.727-.885-1.077-1.135a8.69 8.69 0 0 0 1.202-1.36h-1.771a7.174 7.174 0 0 1-5.227 2.252 7.174 7.174 0 0 1-5.226-2.252z" fill="#fafafa" transform="translate(56.00 332.50) scale(0.6250)"/>
<text x="78" y="344.0" font-family="ui-sans-serif,-apple-system,BlinkMacSystemFont,'Segoe UI',Helvetica,Arial,sans-serif" font-size="11.5" fill="#fafafa" font-weight="500">Helmfile</text>
<rect x="146.5" y="324.0" width="123.1" height="32" rx="9" fill="#1c1c1f" stroke="#26262a"/>
<path d="M12.581 0c.436.037.871.1 1.299.186 1.679.383 3.121 1.213 4.382 2.365 1.161 1.06 1.917 2.372 2.335 3.881.089.321.216.56.586.624.205.035.238.245.239.43.003.646.002 1.294.002 1.94l-.002 1.21c-.001.356-.116.479-.466.474-.211-.003-.293.119-.344.291-.146.489-.33.966-.552 1.426-.818 1.682-2.084 2.938-3.688 3.87-.077.045-.155.088-.233.131-.252.137-.258.146-.155.415.114.299.358.529.664.625.269.096.553.134.827.21a.672.672 0 0 1 .236.094c-.066.082-.156.067-.231.082-.36.073-.713.184-1.086.17a1.275 1.275 0 0 1-.438-.064c-.114-.045-.152-.006-.176.109a5.354 5.354 0 0 0-.084.92c-.015.617-.071 1.23-.112 1.844-.042.598-.018.651.558.842.281.094.563.187.842.286.069.024.15.038.192.117-.04.057-.098.035-.146.035-.493.003-.985.005-1.478.001-.524-.005-.806-.282-.845-.803-.055-.762-.12-1.524-.182-2.286a.947.947 0 0 0-.026-.12c-.079.455-.065.879-.084 1.298-.023.528-.008 1.057-.007 1.584 0 .27.086.388.335.483.359.135.711.295 1.114.262.141-.012.276.062.402.129.032.017.073.033.069.073-.004.043-.049.047-.084.045-.657-.019-1.317.065-1.972-.028-.323-.046-.533-.236-.631-.552-.094-.303-.114-.617-.137-.93-.046-.626-.078-1.253-.116-1.88a.222.222 0 0 0-.061-.171.282.282 0 0 0-.031.193c-.002.956-.002 1.911-.001 2.866 0 .388.123.575.494.708.481.172.976.298 1.47.423.11.028.225.047.242.192h-1.852c-.051-.01-.103-.022-.155-.03-.701-.1-1.001-.372-1.143-1.042l-.067-.331-.226-1.103c-.069.12-.118.25-.144.386-.083.399-.151.802-.243 1.2-.113.493-.444.763-.932.857l-.33.063H8.558c.057-.171.216-.185.355-.221.476-.127.96-.223 1.417-.409a.603.603 0 0 0 .397-.521c.058-.435.002-.865-.013-1.296a1.528 1.528 0 0 0-.078-.315.405.405 0 0 0-.071.207c-.026.296-.049.591-.075.886-.038.432-.273.716-.679.81a1.702 1.702 0 0 1-.37.045c-.557.003-1.115-.001-1.673-.005-.048 0-.109.019-.148-.065.178-.103.377-.168.582-.187a5.67 5.67 0 0 0 .939-.193c.42-.114.522-.249.512-.687-.023-.931-.091-1.86-.069-2.791.004-.184.001-.368.001-.551a2.387 2.387 0 0 0-.05.385 40.299 40.299 0 0 1-.186 2.623c-.052.513-.296.748-.804.805-.446.051-.889.002-1.332-.02-.108-.006-.234.012-.339-.064.043-.066.106-.07.16-.087.362-.115.725-.224 1.086-.344.246-.081.35-.235.355-.492a2.241 2.241 0 0 0-.003-.232 45.315 45.315 0 0 1-.105-2.149 5.487 5.487 0 0 0-.035-.478c-.024-.188-.131-.287-.295-.258-.505.092-.99-.006-1.473-.139-.059-.016-.134-.007-.178-.088a.986.986 0 0 1 .285-.09c.255-.052.507-.121.753-.208.312-.112.564-.347.695-.651.089-.203.056-.317-.112-.398-1.418-.683-2.512-1.73-3.391-3.017a8.152 8.152 0 0 1-1.123-2.447c-.067-.246-.156-.3-.383-.26-.306.053-.401.006-.535-.273v-3.49c.144-.303.205-.341.534-.329.235.01.247-.004.309-.242.396-1.508 1.082-2.861 2.171-3.988C6.9 1.42 8.523.631 10.34.203c.456-.108.922-.15 1.387-.203h.854Zm7.974 8.948a7.34 7.34 0 0 0-.048-.938 8.353 8.353 0 0 0-.099-.65c-.598-2.964-2.344-5.02-5.051-6.268-1.553-.715-3.21-.835-4.878-.511-3.248.633-5.396 2.583-6.539 5.652-.436 1.173-.495 2.406-.37 3.65.087.935.339 1.846.745 2.694.585 1.213 1.444 2.207 2.477 3.058.343.286.719.528 1.121.719.235.111.247.105.245-.146.006-.16.003-.32-.009-.48-.125-1.02-.142-2.045-.169-3.069a.392.392 0 0 0-.184-.353c-.385-.268-.713-.592-.921-1.019-.474-.97-.372-2.361.813-3.215.136-.097.217-.19.198-.373a1.724 1.724 0 0 1 .031-.442c.177-1.187.748-2.138 1.722-2.84.68-.492 1.442-.772 2.286-.782.483-.007.953.11 1.414.244 1.609.467 2.846 2.07 2.845 3.697a.64.64 0 0 0 .268.565c.463.371.821.83.943 1.426.22 1.077-.083 1.982-.979 2.634-.266.194-.347.406-.333.698.002.047 0 .095-.002.142l-.062 1.439c-.025.586-.138 1.165-.117 1.754.008.223.006.226.201.128a7.46 7.46 0 0 0 2.393-1.903c1.32-1.577 2.074-3.372 2.059-5.511ZM9.117 12.102c1.489.021 2.443-1.578 1.716-2.879a1.937 1.937 0 0 0-1.699-.991c-1.094-.004-1.954.822-1.958 1.881-.005 1.148.813 1.985 1.941 1.989Zm5.794 0c1.101.002 1.935-.823 1.935-1.917 0-1.091-.846-1.949-1.92-1.947-1.064.003-1.94.866-1.943 1.915-.003 1.105.831 1.948 1.928 1.949Zm-1.472 1.937c-.208.128-.407.277-.63.384-.536.257-1.063.257-1.579-.048-.158-.094-.308-.201-.464-.298-.047-.028-.092-.103-.15-.062-.044.03-.01.1-.001.151.037.179.064.362.082.544.027.565.293.992.742 1.31a.984.984 0 0 0 .791.186c.565-.119 1.025-.614 1.124-1.218.043-.266.005-.544.109-.803a.133.133 0 0 0-.024-.146Zm-8.78-4.92c-.012-1.102.143-2.055.54-2.961.633-1.443 1.642-2.553 2.98-3.374a.378.378 0 0 1 .459.067c.06.06.036.118.01.178a1.09 1.09 0 0 1-.48.51c-1.079.639-1.829 1.571-2.357 2.688a6.325 6.325 0 0 0-.618 2.986c.055 1.309.439 2.516 1.213 3.588.088.104.148.23.173.365.01.08.059.168-.031.228a.312.312 0 0 1-.288.041.502.502 0 0 1-.234-.185c-.72-.979-1.193-2.056-1.331-3.273-.036-.326-.004-.653-.036-.858ZM8.94 2.34a.373.373 0 0 1 .378-.382c.211.001.409.226.416.473.004.138-.309.39-.476.386-.189-.005-.318-.2-.318-.477Zm-.465 7.48a.609.609 0 0 1 .586-.631c.38-.003.671.271.675.633.004.356-.27.622-.639.621-.38-.002-.621-.241-.622-.623Zm6.496.623c-.381-.002-.625-.255-.621-.646a.635.635 0 0 1 .596-.613.656.656 0 0 1 .669.643c.001.354-.275.618-.644.616Z" fill="#EF7B4D" transform="translate(158.46 332.50) scale(0.6250)"/>
<text x="180.46" y="344.0" font-family="ui-sans-serif,-apple-system,BlinkMacSystemFont,'Segoe UI',Helvetica,Arial,sans-serif" font-size="11.5" fill="#fafafa" font-weight="500">Argo Rollouts</text>
<rect x="277.6" y="324.0" width="82.4" height="32" rx="9" fill="#1c1c1f" stroke="#26262a"/>
<path d="m12 1.608 12 20.784H0Z" fill="#fafafa" transform="translate(289.56 332.50) scale(0.6250)"/>
<text x="311.555" y="344.0" font-family="ui-sans-serif,-apple-system,BlinkMacSystemFont,'Segoe UI',Helvetica,Arial,sans-serif" font-size="11.5" fill="#fafafa" font-weight="500">Vercel</text>
<rect x="367.9" y="324.0" width="102.9" height="32" rx="9" fill="#1c1c1f" stroke="#26262a"/>
<path d="M16.5088 16.8447c.1475-.5068.0908-.9707-.1553-1.3154-.2246-.3164-.6045-.499-1.0615-.5205l-8.6592-.1123a.1559.1559 0 0 1-.1333-.0713c-.0283-.042-.0351-.0986-.021-.1553.0278-.084.1123-.1484.2036-.1562l8.7359-.1123c1.0351-.0489 2.1601-.8868 2.5537-1.9136l.499-1.3013c.0215-.0561.0293-.1128.0147-.168-.5625-2.5463-2.835-4.4453-5.5499-4.4453-2.5039 0-4.6284 1.6177-5.3876 3.8614-.4927-.3658-1.1187-.5625-1.794-.499-1.2026.119-2.1665 1.083-2.2861 2.2856-.0283.31-.0069.6128.0635.894C1.5683 13.171 0 14.7754 0 16.752c0 .1748.0142.3515.0352.5273.0141.083.0844.1475.1689.1475h15.9814c.0909 0 .1758-.0645.2032-.1553l.12-.4268zm2.7568-5.5634c-.0771 0-.1611 0-.2383.0112-.0566 0-.1054.0415-.127.0976l-.3378 1.1744c-.1475.5068-.0918.9707.1543 1.3164.2256.3164.6055.498 1.0625.5195l1.8437.1133c.0557 0 .1055.0263.1329.0703.0283.043.0351.1074.0214.1562-.0283.084-.1132.1485-.204.1553l-1.921.1123c-1.041.0488-2.1582.8867-2.5527 1.914l-.1406.3585c-.0283.0713.0215.1416.0986.1416h6.5977c.0771 0 .1474-.0489.169-.126.1122-.4082.1757-.837.1757-1.2803 0-2.6025-2.125-4.727-4.7344-4.727" fill="#F38020" transform="translate(379.94 332.50) scale(0.6250)"/>
<text x="401.94" y="344.0" font-family="ui-sans-serif,-apple-system,BlinkMacSystemFont,'Segoe UI',Helvetica,Arial,sans-serif" font-size="11.5" fill="#fafafa" font-weight="500">Cloudflare</text>
<text x="44" y="372" font-family="ui-sans-serif,-apple-system,BlinkMacSystemFont,'Segoe UI',Helvetica,Arial,sans-serif" font-size="10.5" fill="#8a8a92" font-weight="600" letter-spacing="1.2">Observability</text>
<rect x="44.0" y="386.0" width="91.1" height="32" rx="9" fill="#1c1c1f" stroke="#26262a"/>
<path d="M19.57 17.04l-1.997-1.316-1.665 2.782-1.937-.567-1.706 2.604.087.82 9.274-1.71-.538-5.794zm-8.649-2.498l1.488-.204c.241.108.409.15.697.223.45.117.97.23 1.741-.16.18-.088.553-.43.704-.625l6.096-1.106.622 7.527-10.444 1.882zm11.325-2.712l-.602.115L20.488 0 .789 2.285l2.427 19.693 2.306-.334c-.184-.263-.471-.581-.96-.989-.68-.564-.44-1.522-.039-2.127.53-1.022 3.26-2.322 3.106-3.956-.056-.594-.15-1.368-.702-1.898-.02.22.017.432.017.432s-.227-.289-.34-.683c-.112-.15-.2-.199-.319-.4-.085.233-.073.503-.073.503s-.186-.437-.216-.807c-.11.166-.137.48-.137.48s-.241-.69-.186-1.062c-.11-.323-.436-.965-.343-2.424.6.421 1.924.321 2.44-.439.171-.251.288-.939-.086-2.293-.24-.868-.835-2.16-1.066-2.651l-.028.02c.122.395.374 1.223.47 1.625.293 1.218.372 1.642.234 2.204-.116.488-.397.808-1.107 1.165-.71.358-1.653-.514-1.713-.562-.69-.55-1.224-1.447-1.284-1.883-.062-.477.275-.763.445-1.153-.243.07-.514.192-.514.192s.323-.334.722-.624c.165-.109.262-.178.436-.323a9.762 9.762 0 0 0-.456.003s.42-.227.855-.392c-.318-.014-.623-.003-.623-.003s.937-.419 1.678-.727c.509-.208 1.006-.147 1.286.257.367.53.752.817 1.569.996.501-.223.653-.337 1.284-.509.554-.61.99-.688.99-.688s-.216.198-.274.51c.314-.249.66-.455.66-.455s-.134.164-.259.426l.03.043c.366-.22.797-.394.797-.394s-.123.156-.268.358c.277-.002.838.012 1.056.037 1.285.028 1.552-1.374 2.045-1.55.618-.22.894-.353 1.947.68.903.888 1.609 2.477 1.259 2.833-.294.295-.874-.115-1.516-.916a3.466 3.466 0 0 1-.716-1.562 1.533 1.533 0 0 0-.497-.85s.23.51.23.96c0 .246.03 1.165.424 1.68-.039.076-.057.374-.1.43-.458-.554-1.443-.95-1.604-1.067.544.445 1.793 1.468 2.273 2.449.453.927.186 1.777.416 1.997.065.063.976 1.197 1.15 1.767.306.994.019 2.038-.381 2.685l-1.117.174c-.163-.045-.273-.068-.42-.153.08-.143.241-.5.243-.572l-.063-.111c-.348.492-.93.97-1.414 1.245-.633.359-1.363.304-1.838.156-1.348-.415-2.623-1.327-2.93-1.566 0 0-.01.191.048.234.34.383 1.119 1.077 1.872 1.56l-1.605.177.759 5.908c-.337.048-.39.071-.757.124-.325-1.147-.946-1.895-1.624-2.332-.599-.384-1.424-.47-2.214-.314l-.05.059a2.851 2.851 0 0 1 1.863.444c.654.413 1.181 1.481 1.375 2.124.248.822.42 1.7-.248 2.632-.476.662-1.864 1.028-2.986.237.3.481.705.876 1.25.95.809.11 1.577-.03 2.106-.574.452-.464.69-1.434.628-2.456l.714-.104.258 1.834 11.827-1.424zM15.05 6.848c-.034.075-.085.125-.007.37l.004.014.013.032.032.073c.14.287.295.558.552.696.067-.011.136-.019.207-.023.242-.01.395.028.492.08.009-.048.01-.119.005-.222-.018-.364.072-.982-.626-1.308-.264-.122-.634-.084-.757.068a.302.302 0 0 1 .058.013c.186.066.06.13.027.207m1.958 3.392c-.092-.05-.52-.03-.821.005-.574.068-1.193.267-1.328.372-.247.191-.135.523.047.66.511.382.96.638 1.432.575.29-.038.546-.497.728-.914.124-.288.124-.598-.058-.698m-5.077-2.942c.162-.154-.805-.355-1.556.156-.554.378-.571 1.187-.041 1.646.053.046.096.078.137.104a4.77 4.77 0 0 1 1.396-.412c.113-.125.243-.345.21-.745-.044-.542-.455-.456-.146-.749" fill="#632CA6" transform="translate(56.00 394.50) scale(0.6250)"/>
<text x="78" y="406.0" font-family="ui-sans-serif,-apple-system,BlinkMacSystemFont,'Segoe UI',Helvetica,Arial,sans-serif" font-size="11.5" fill="#fafafa" font-weight="500">Datadog</text>
<rect x="143.1" y="386.0" width="82.4" height="32" rx="9" fill="#1c1c1f" stroke="#26262a"/>
<path d="M13.91 2.505c-.873-1.448-2.972-1.448-3.844 0L6.904 7.92a15.478 15.478 0 0 1 8.53 12.811h-2.221A13.301 13.301 0 0 0 5.784 9.814l-2.926 5.06a7.65 7.65 0 0 1 4.435 5.848H2.194a.365.365 0 0 1-.298-.534l1.413-2.402a5.16 5.16 0 0 0-1.614-.913L.296 19.275a2.182 2.182 0 0 0 .812 2.999 2.24 2.24 0 0 0 1.086.288h6.983a9.322 9.322 0 0 0-3.845-8.318l1.11-1.922a11.47 11.47 0 0 1 4.95 10.24h5.915a17.242 17.242 0 0 0-7.885-15.28l2.244-3.845a.37.37 0 0 1 .504-.13c.255.14 9.75 16.708 9.928 16.9a.365.365 0 0 1-.327.543h-2.287c.029.612.029 1.223 0 1.831h2.297a2.206 2.206 0 0 0 1.922-3.31z" fill="#fafafa" transform="translate(155.12 394.50) scale(0.6250)"/>
<text x="177.125" y="406.0" font-family="ui-sans-serif,-apple-system,BlinkMacSystemFont,'Segoe UI',Helvetica,Arial,sans-serif" font-size="11.5" fill="#fafafa" font-weight="500">Sentry</text>
<rect x="233.5" y="386.0" width="88.7" height="32" rx="9" fill="#1c1c1f" stroke="#26262a"/>
<path d="M23.02 10.59a8.578 8.578 0 0 0-.862-3.034 8.911 8.911 0 0 0-1.789-2.445c.337-1.342-.413-2.505-.413-2.505-1.292-.08-2.113.4-2.416.62-.052-.02-.102-.044-.154-.064-.22-.089-.446-.172-.677-.247-.231-.073-.47-.14-.711-.197a9.867 9.867 0 0 0-.875-.161C14.557.753 12.94 0 12.94 0c-1.804 1.145-2.147 2.744-2.147 2.744l-.018.093c-.098.029-.2.057-.298.088-.138.042-.275.094-.413.143-.138.055-.275.107-.41.166a8.869 8.869 0 0 0-1.557.87l-.063-.029c-2.497-.955-4.716.195-4.716.195-.203 2.658.996 4.33 1.235 4.636a11.608 11.608 0 0 0-.607 2.635C1.636 12.677.953 15.014.953 15.014c1.926 2.214 4.171 2.351 4.171 2.351.003-.002.006-.002.006-.005.285.509.615.994.986 1.446.156.19.32.371.488.548-.704 2.009.099 3.68.099 3.68 2.144.08 3.553-.937 3.849-1.173a9.784 9.784 0 0 0 3.164.501h.08l.055-.003.107-.002.103-.005.003.002c1.01 1.44 2.788 1.646 2.788 1.646 1.264-1.332 1.337-2.653 1.337-2.94v-.058c0-.02-.003-.039-.003-.06.265-.187.52-.387.758-.6a7.875 7.875 0 0 0 1.415-1.7c1.43.083 2.437-.885 2.437-.885-.236-1.49-1.085-2.216-1.264-2.354l-.018-.013-.016-.013a.217.217 0 0 1-.031-.02c.008-.092.016-.18.02-.27.011-.162.016-.323.016-.48v-.253l-.005-.098-.008-.135a1.891 1.891 0 0 0-.01-.13c-.003-.042-.008-.083-.013-.125l-.016-.124-.018-.122a6.215 6.215 0 0 0-2.032-3.73 6.015 6.015 0 0 0-3.222-1.46 6.292 6.292 0 0 0-.85-.048l-.107.002h-.063l-.044.003-.104.008a4.777 4.777 0 0 0-3.335 1.695c-.332.4-.592.84-.768 1.297a4.594 4.594 0 0 0-.312 1.817l.003.091c.005.055.007.11.013.164a3.615 3.615 0 0 0 .698 1.82 3.53 3.53 0 0 0 1.827 1.282c.33.098.66.14.971.137.039 0 .078 0 .114-.002l.063-.003c.02 0 .041-.003.062-.003.034-.002.065-.007.099-.01.007 0 .018-.003.028-.003l.031-.005.06-.008a1.18 1.18 0 0 0 .112-.02c.036-.008.072-.013.109-.024a2.634 2.634 0 0 0 .914-.415c.028-.02.056-.041.085-.065a.248.248 0 0 0 .039-.35.244.244 0 0 0-.309-.06l-.078.042c-.09.044-.184.083-.283.116a2.476 2.476 0 0 1-.475.096c-.028.003-.054.006-.083.006l-.083.002c-.026 0-.054 0-.08-.002l-.102-.006h-.012l-.024.006c-.016-.003-.031-.003-.044-.006-.031-.002-.06-.007-.091-.01a2.59 2.59 0 0 1-.724-.213 2.557 2.557 0 0 1-.667-.438 2.52 2.52 0 0 1-.805-1.475 2.306 2.306 0 0 1-.029-.444l.006-.122v-.023l.002-.031c.003-.021.003-.04.005-.06a3.163 3.163 0 0 1 1.352-2.29 3.12 3.12 0 0 1 .937-.43 2.946 2.946 0 0 1 .776-.101h.06l.07.002.045.003h.026l.07.005a4.041 4.041 0 0 1 1.635.49 3.94 3.94 0 0 1 1.602 1.662 3.77 3.77 0 0 1 .397 1.414l.005.076.003.075c.002.026.002.05.002.075 0 .024.003.052 0 .07v.065l-.002.073-.008.174a6.195 6.195 0 0 1-.08.639 5.1 5.1 0 0 1-.267.927 5.31 5.31 0 0 1-.624 1.13 5.052 5.052 0 0 1-3.237 2.014 4.82 4.82 0 0 1-.649.066l-.039.003h-.287a6.607 6.607 0 0 1-1.716-.265 6.776 6.776 0 0 1-3.4-2.274 6.75 6.75 0 0 1-.746-1.15 6.616 6.616 0 0 1-.714-2.596l-.005-.083-.002-.02v-.056l-.003-.073v-.096l-.003-.104v-.07l.003-.163c.008-.22.026-.45.054-.678a8.707 8.707 0 0 1 .28-1.355c.128-.444.286-.872.473-1.277a7.04 7.04 0 0 1 1.456-2.1 5.925 5.925 0 0 1 .953-.763c.169-.111.343-.213.524-.306.089-.05.182-.091.273-.135.047-.02.093-.042.138-.062a7.177 7.177 0 0 1 .714-.267l.145-.045c.049-.015.098-.026.148-.041.098-.029.197-.052.296-.076.049-.013.1-.02.15-.033l.15-.032.151-.028.076-.013.075-.01.153-.024c.057-.01.114-.013.171-.023l.169-.021c.036-.003.073-.008.106-.01l.073-.008.036-.003.042-.002c.057-.003.114-.008.171-.01l.086-.006h.023l.037-.003.145-.007a7.999 7.999 0 0 1 1.708.125 7.917 7.917 0 0 1 2.048.68 8.253 8.253 0 0 1 1.672 1.09l.09.077.089.078c.06.052.114.107.171.159.057.052.112.106.166.16.052.055.107.107.159.164a8.671 8.671 0 0 1 1.41 1.978c.012.026.028.052.04.078l.04.078.075.156c.023.051.05.1.07.153l.065.15a8.848 8.848 0 0 1 .45 1.34.19.19 0 0 0 .201.142.186.186 0 0 0 .172-.184c.01-.246.002-.532-.024-.856z" fill="#F46800" transform="translate(245.51 394.50) scale(0.6250)"/>
<text x="267.51" y="406.0" font-family="ui-sans-serif,-apple-system,BlinkMacSystemFont,'Segoe UI',Helvetica,Arial,sans-serif" font-size="11.5" fill="#fafafa" font-weight="500">Grafana</text>
<rect x="330.2" y="386.0" width="102.6" height="32" rx="9" fill="#1c1c1f" stroke="#26262a"/>
<path d="M16.965 1.18C15.085.164 13.769 0 10.683 0H3.73v14.55h6.926c2.743 0 4.8-.164 6.61-1.37 1.975-1.303 3.004-3.484 3.004-6.007 0-2.716-1.262-4.896-3.305-5.994zm-5.5 10.326h-4.21V3.113l3.977-.027c3.62-.028 5.43 1.234 5.43 4.128 0 3.113-2.248 4.292-5.197 4.292zM3.73 17.61h3.525V24H3.73Z" fill="#06AC38" transform="translate(342.22 394.50) scale(0.6250)"/>
<text x="364.22" y="406.0" font-family="ui-sans-serif,-apple-system,BlinkMacSystemFont,'Segoe UI',Helvetica,Arial,sans-serif" font-size="11.5" fill="#fafafa" font-weight="500">PagerDuty</text>
<text x="44" y="434" font-family="ui-sans-serif,-apple-system,BlinkMacSystemFont,'Segoe UI',Helvetica,Arial,sans-serif" font-size="10.5" fill="#8a8a92" font-weight="600" letter-spacing="1.2">Delivery</text>
<rect x="44.0" y="448.0" width="83.7" height="32" rx="9" fill="#1c1c1f" stroke="#26262a"/>
<path d="M12 .297c-6.63 0-12 5.373-12 12 0 5.303 3.438 9.8 8.205 11.385.6.113.82-.258.82-.577 0-.285-.01-1.04-.015-2.04-3.338.724-4.042-1.61-4.042-1.61C4.422 18.07 3.633 17.7 3.633 17.7c-1.087-.744.084-.729.084-.729 1.205.084 1.838 1.236 1.838 1.236 1.07 1.835 2.809 1.305 3.495.998.108-.776.417-1.305.76-1.605-2.665-.3-5.466-1.332-5.466-5.93 0-1.31.465-2.38 1.235-3.22-.135-.303-.54-1.523.105-3.176 0 0 1.005-.322 3.3 1.23.96-.267 1.98-.399 3-.405 1.02.006 2.04.138 3 .405 2.28-1.552 3.285-1.23 3.285-1.23.645 1.653.24 2.873.12 3.176.765.84 1.23 1.91 1.23 3.22 0 4.61-2.805 5.625-5.475 5.92.42.36.81 1.096.81 2.22 0 1.606-.015 2.896-.015 3.286 0 .315.21.69.825.57C20.565 22.092 24 17.592 24 12.297c0-6.627-5.373-12-12-12" fill="#fafafa" transform="translate(56.00 456.50) scale(0.6250)"/>
<text x="78" y="468.0" font-family="ui-sans-serif,-apple-system,BlinkMacSystemFont,'Segoe UI',Helvetica,Arial,sans-serif" font-size="11.5" fill="#fafafa" font-weight="500">GitHub</text>
<rect x="135.7" y="448.0" width="130.7" height="32" rx="9" fill="#1c1c1f" stroke="#26262a"/>
<path d="M10.984 13.836a.5.5 0 0 1-.353-.146l-.745-.743a.5.5 0 1 1 .706-.708l.392.391 1.181-1.18a.5.5 0 0 1 .708.707l-1.535 1.533a.504.504 0 0 1-.354.146zm9.353-.147l1.534-1.532a.5.5 0 0 0-.707-.707l-1.181 1.18-.392-.391a.5.5 0 1 0-.706.708l.746.743a.497.497 0 0 0 .706-.001zM4.527 7.452l2.557-1.585A1 1 0 0 0 7.09 4.17L4.533 2.56A1 1 0 0 0 3 3.406v3.196a1.001 1.001 0 0 0 1.527.85zm2.03-2.436L4 6.602V3.406l2.557 1.61zM24 12.5c0 1.93-1.57 3.5-3.5 3.5a3.503 3.503 0 0 1-3.46-3h-2.08a3.503 3.503 0 0 1-3.46 3 3.502 3.502 0 0 1-3.46-3h-.558c-.972 0-1.85-.399-2.482-1.042V17c0 1.654 1.346 3 3 3h.04c.244-1.693 1.7-3 3.46-3 1.93 0 3.5 1.57 3.5 3.5S13.43 24 11.5 24a3.502 3.502 0 0 1-3.46-3H8c-2.206 0-4-1.794-4-4V9.899A5.008 5.008 0 0 1 0 5c0-2.757 2.243-5 5-5s5 2.243 5 5a5.005 5.005 0 0 1-4.952 4.998A2.482 2.482 0 0 0 7.482 12h.558c.244-1.693 1.7-3 3.46-3a3.502 3.502 0 0 1 3.46 3h2.08a3.503 3.503 0 0 1 3.46-3c1.93 0 3.5 1.57 3.5 3.5zm-15 8c0 1.378 1.122 2.5 2.5 2.5s2.5-1.122 2.5-2.5-1.122-2.5-2.5-2.5S9 19.122 9 20.5zM5 9c2.206 0 4-1.794 4-4S7.206 1 5 1 1 2.794 1 5s1.794 4 4 4zm9 3.5c0-1.378-1.122-2.5-2.5-2.5S9 11.122 9 12.5s1.122 2.5 2.5 2.5 2.5-1.122 2.5-2.5zm9 0c0-1.378-1.122-2.5-2.5-2.5S18 11.122 18 12.5s1.122 2.5 2.5 2.5 2.5-1.122 2.5-2.5zm-13 8a.5.5 0 1 0 1 0 .5.5 0 0 0-1 0zm2 0a.5.5 0 1 0 1 0 .5.5 0 0 0-1 0zm12 0c0 1.93-1.57 3.5-3.5 3.5a3.503 3.503 0 0 1-3.46-3.002c-.007.001-.013.005-.021.005l-.506.017h-.017a.5.5 0 0 1-.016-.999l.506-.017c.018-.002.035.006.052.007A3.503 3.503 0 0 1 20.5 17c1.93 0 3.5 1.57 3.5 3.5zm-1 0c0-1.378-1.122-2.5-2.5-2.5S18 19.122 18 20.5s1.122 2.5 2.5 2.5 2.5-1.122 2.5-2.5z" fill="#2088FF" transform="translate(147.65 456.50) scale(0.6250)"/>
<text x="169.65" y="468.0" font-family="ui-sans-serif,-apple-system,BlinkMacSystemFont,'Segoe UI',Helvetica,Arial,sans-serif" font-size="11.5" fill="#fafafa" font-weight="500">GitHub Actions</text>
<rect x="274.3" y="448.0" width="83.7" height="32" rx="9" fill="#1c1c1f" stroke="#26262a"/>
<path d="m23.6004 9.5927-.0337-.0862L20.3.9814a.851.851 0 0 0-.3362-.405.8748.8748 0 0 0-.9997.0539.8748.8748 0 0 0-.29.4399l-2.2055 6.748H7.5375l-2.2057-6.748a.8573.8573 0 0 0-.29-.4412.8748.8748 0 0 0-.9997-.0537.8585.8585 0 0 0-.3362.4049L.4332 9.5015l-.0325.0862a6.0657 6.0657 0 0 0 2.0119 7.0105l.0113.0087.03.0213 4.976 3.7264 2.462 1.8633 1.4995 1.1321a1.0085 1.0085 0 0 0 1.2197 0l1.4995-1.1321 2.4619-1.8633 5.006-3.7489.0125-.01a6.0682 6.0682 0 0 0 2.0094-7.003z" fill="#FC6D26" transform="translate(286.34 456.50) scale(0.6250)"/>
<text x="308.33500000000004" y="468.0" font-family="ui-sans-serif,-apple-system,BlinkMacSystemFont,'Segoe UI',Helvetica,Arial,sans-serif" font-size="11.5" fill="#fafafa" font-weight="500">GitLab</text>
<rect x="366.0" y="448.0" width="91.1" height="32" rx="9" fill="#1c1c1f" stroke="#26262a"/>
<path d="M2.872 24h-.975a3.866 3.866 0 01-.07-.197c-.215-.666-.594-1.49-.692-2.154-.146-.984.78-1.039 1.374-1.465.915-.66 1.635-1.025 2.627-1.62.295-.179 1.182-.624 1.281-.829.201-.408-.345-.982-.49-1.3-.225-.507-.345-.937-.376-1.435-.824-.13-1.455-.627-1.844-1.185-.63-.925-1.066-2.635-.525-3.936.045-.103.254-.305.285-.463.06-.308-.105-.72-.12-1.048-.06-1.692.284-3.15 1.425-3.66.463-1.84 2.113-2.453 3.673-3.367.58-.342 1.224-.562 1.89-.807 2.372-.877 6.027-.712 7.994.783.836.633 2.176 1.97 2.656 2.939 1.262 2.555 1.17 6.825.287 9.934-.12.421-.29 1.032-.533 1.533-.168.35-.689 1.05-.625 1.36.064.314 1.19 1.17 1.432 1.395.434.422 1.26.975 1.324 1.5.07.557-.248 1.336-.41 1.875-.217.721-.436 1.441-.654 2.131H2.87zm11.104-3.54c-.545-.3-1.361-.622-2.065-.757-.87-.164-.78 1.188-.75 1.994.03.643.36 1.316.51 1.744.076.197.09.41.256.449.3.068 1.29-.326 1.575-.479.6-.328 1.064-.844 1.574-1.189.016-.17.016-.34.03-.508a2.648 2.648 0 00-1.095-.277c.314-.15.75-.15 1.035-.332l.016-.193c-.496-.03-.69-.254-1.021-.436zm7.454 2.935a17.78 17.78 0 00.465-1.752c.06-.287.215-.918.178-1.176-.059-.459-.684-.799-1.004-1.086-.584-.525-.95-.975-1.56-1.469-.249.375-.78.615-.983.914 1.447-.689 1.71 2.625 1.141 3.69.09.329.391.45.514.735l-.086.166h1.29c.013 0 .03 0 .044.014zm-6.634-.012c-.05-.074-.1-.135-.15-.209l-.301.195h.45zm2.77 0c.008-.209.018-.404.03-.598-.53.029-.825-.48-1.196-.527-.324-.045-.6.361-1.02.195-.095.105-.183.227-.284.316.154.18.295.375.424.584h.815c.014-.164.135-.285.3-.285.165 0 .284.121.284.27h.66zm2.116 0c-.314-.479-.947-.898-1.68-.555l-.03.541h1.71zm-8.51 0l-.104-.344c-.225-.72-.36-1.26-.405-1.68-.914-.436-1.875-.87-2.654-1.426-.15-.105-1.109-1.35-1.23-1.305-1.739.676-3.359 1.86-4.814 2.984.256.557.48 1.141.69 1.74h8.505zm8.265-2.113c-.029-.512-.164-1.56-.48-1.74-.66-.39-1.846.78-2.34.943.045.15.135.271.15.48.285-.074.645-.029.898.092-.299.03-.629.03-.824.164-.074.195.016.48-.029.764.69.197 1.5.303 2.385.332.164-.227.225-.645.211-1.082zm-4.08-.36c-.044.375.046.51.12.943 1.26.391 1.034-1.74-.135-.959zM8.76 19.5c-.45.457 1.27 1.082 1.814 1.115 0-.29.165-.564.135-.77-.65-.118-1.502-.042-1.945-.347zm5.565.215c0 .043-.061.03-.068.064.58.451 1.014.545 1.802.51.354-.262.67-.563 1.043-.807-.855.074-1.931.607-2.774.23zm3.42-17.726c-1.606-.906-4.35-1.591-6.076-.731-1.38.692-3.27 1.84-3.899 3.292.6 1.402-.166 2.686-.226 4.109-.018.757.36 1.42.391 2.242-.2.338-.825.38-1.26.356-.146-.729-.4-1.549-1.155-1.63-1.064-.116-1.845.764-1.89 1.683-.06 1.08.833 2.864 2.085 2.745.488-.046.608-.54 1.139-.54.285.57-.445.75-.523 1.154-.016.105.06.511.104.705.233.944.744 2.16 1.245 2.88.635.9 1.884 1.051 3.229 1.141.24-.525 1.125-.48 1.706-.346-.691-.27-1.336-.945-1.875-1.529-.615-.676-1.23-1.41-1.261-2.28 1.155 1.604 2.1 3 4.2 3.704 1.59.525 3.45-.254 4.664-1.109.51-.359.811-.93 1.17-1.439 1.35-1.936 1.98-4.71 1.846-7.394-.06-1.111-.06-2.221-.436-2.955-.389-.781-1.695-1.471-2.475-.781-.15-.764.63-1.23 1.545-.96-.66-.854-1.336-1.858-2.266-2.384zM13.58 14.896c.615 1.544 2.724 1.363 4.505 1.323-.084.194-.256.435-.465.515-.57.232-2.145.408-2.937-.012-.506-.27-.824-.873-1.102-1.227-.137-.172-.795-.608-.012-.609zm.164-.87c.893.464 2.52.517 3.731.48.066.267.066.593.068.913-1.55.08-3.386-.304-3.794-1.395h-.005zm6.675-.586c-.473.9-1.145 1.897-2.539 1.928-.023-.284-.045-.735 0-.904 1.064-.103 1.727-.646 2.543-1.017zm-.649-.667c-1.02.66-2.154 1.375-3.824 1.21-.351-.31-.485-1-.14-1.458.181.313.06.885.57.97.944.165 2.038-.579 2.73-.84.42-.713-.046-.976-.42-1.433-.782-.93-1.83-2.1-1.802-3.51.314-.224.346.346.391.45.404.96 1.424 2.175 2.174 3 .18.21.48.39.51.524.092.39-.254.854-.209 1.11zm-13.439-.675c-.314-.184-.393-.99-.768-1.01-.535-.03-.438 1.05-.436 1.68-.37-.33-.435-1.365-.164-1.89-.308-.15-.445.164-.618.284.22-1.59 2.34-.734 1.99.96zM4.713 5.995c-.685.756-.54 2.174-.459 3.188 1.244-.785 2.898.06 2.883 1.394.595-.016.223-.744.115-1.215-.353-1.528.592-3.187.041-4.59-1.064.084-1.939.52-2.578 1.215zm9.12 1.113c.307.562.404 1.148.84 1.57.195.19.574.424.387.95-.045.121-.365.391-.551.45-.674.195-2.254.03-1.721-.81.563.015 1.314.36 1.732-.045-.314-.524-.885-1.53-.674-2.13zm6.198-.013h.068c.33.668.6 1.375 1.004 1.965-.27.628-2.053 1.19-2.023.057.39-.17 1.05-.035 1.395-.25-.193-.556-.48-1.006-.434-1.771zm-6.927-1.617c-1.422-.33-2.131.592-2.56 1.553-.384-.094-.231-.615-.135-.883.255-.701 1.28-1.633 2.119-1.506.359.057.848.386.576.834zM9.642 1.593c-1.56.44-3.56 1.574-4.2 2.974.495-.07.84-.321 1.33-.351.186-.016.428.074.641.015.424-.104.78-1.065 1.102-1.41.31-.345.685-.496.94-.81.167-.09.409-.074.42-.33-.073-.075-.15-.135-.232-.105v.017z" fill="#D24939" transform="translate(377.99 456.50) scale(0.6250)"/>
<text x="399.985" y="468.0" font-family="ui-sans-serif,-apple-system,BlinkMacSystemFont,'Segoe UI',Helvetica,Arial,sans-serif" font-size="11.5" fill="#fafafa" font-weight="500">Jenkins</text>
<rect x="465.1" y="448.0" width="72.2" height="32" rx="9" fill="#1c1c1f" stroke="#26262a"/>
<path d="M22.251 11.82a3.117 3.117 0 0 0-2.328-3.01L22.911 0H8.104L11.1 8.838a3.116 3.116 0 0 0-2.244 2.988c0 1.043.52 1.967 1.313 2.536a8.279 8.279 0 0 1-1.084 1.244 8.14 8.14 0 0 1-2.55 1.647c-.834-.563-1.195-1.556-.869-2.446a3.11 3.11 0 0 0-.91-6.08 3.117 3.117 0 0 0-3.113 3.113c0 .848.347 1.626.903 2.182-.048.097-.097.195-.146.299-.465.959-.993 2.043-1.195 3.259-.403 2.432.257 4.384 1.849 5.489A5.093 5.093 0 0 0 5.999 24c1.827 0 3.682-.917 5.475-1.807 1.279-.632 2.599-1.292 3.898-1.612.48-.118.98-.187 1.508-.264 1.07-.153 2.175-.312 3.168-.89a4.482 4.482 0 0 0 2.182-3.091c.174-.994 0-1.994-.444-2.87.298-.48.465-1.042.465-1.647zm-1.355 0c0 .965-.785 1.75-1.75 1.75a1.753 1.753 0 0 1-1.085-3.126l.007-.007c.056-.042.118-.084.18-.125 0 0 .008 0 .008-.007.028-.014.055-.035.083-.05.007 0 .014-.006.021-.006.028-.014.063-.028.097-.042.035-.014.07-.027.098-.041.007 0 .013-.007.02-.007.028-.007.056-.021.084-.028.007 0 .02-.007.028-.007.034-.007.062-.014.097-.02h.007l.104-.022c.007 0 .02 0 .028-.007.028 0 .055-.007.083-.007h.035c.035 0 .07-.007.111-.007h.09c.028 0 .05 0 .077.007h.014c.055.007.111.014.167.028a1.766 1.766 0 0 1 1.396 1.723zM10.043 1.39h10.93l-2.509 7.4c-.104.02-.208.055-.312.09l-2.64-5.385-2.648 5.35c-.104-.034-.216-.055-.327-.076l-2.494-7.38zm4.968 9.825a3.083 3.083 0 0 0-.938-1.668l1.438-2.904 1.452 2.967c-.43.43-.743.98-.868 1.605H15.01zm-3.481-1.098c.034-.007.062-.014.097-.02h.02c.029-.008.056-.008.084-.015h.028c.028 0 .049-.007.076-.007h.271c.028 0 .049.007.07.007.014 0 .02 0 .035.007.027.007.048.007.076.014.007 0 .014 0 .028.007l.097.02h.007c.028.008.056.015.083.029.007 0 .014.007.028.007.021.007.049.014.07.027.007 0 .014.007.02.007.028.014.056.021.084.035h.007a.374.374 0 0 1 .09.049h.007c.028.014.056.034.084.048.007 0 .007.007.013.007.028.014.05.035.077.049l.007.007c.083.062.16.132.236.201l.007.007a1.747 1.747 0 0 1 .48 1.209 1.752 1.752 0 0 1-3.502 0 1.742 1.742 0 0 1 1.32-1.695zm-6.838-.049c.966 0 1.751.786 1.751 1.751s-.785 1.751-1.75 1.751-1.752-.785-1.752-1.75.786-1.752 1.751-1.752zm16.163 6.025a3.07 3.07 0 0 1-1.508 2.133c-.758.438-1.689.577-2.669.716a17.29 17.29 0 0 0-1.64.291c-1.445.355-2.834 1.05-4.182 1.717-1.724.854-3.35 1.66-4.857 1.66a3.645 3.645 0 0 1-2.154-.688c-1.529-1.056-1.453-3.036-1.272-4.12.167-1.015.632-1.966 1.077-2.877.028-.055.049-.104.077-.16.152.056.312.098.479.126-.264 1.473.486 2.994 1.946 3.745l.264.139.284-.104c1.216-.431 2.342-1.133 3.336-2.071a9.334 9.334 0 0 0 1.445-1.716c.16.027.32.034.48.034a3.117 3.117 0 0 0 3.008-2.327h1.167a3.109 3.109 0 0 0 3.01 2.327c.576 0 1.11-.16 1.57-.43.18.52.236 1.063.139 1.605z" fill="#C21325" transform="translate(477.11 456.50) scale(0.6250)"/>
<text x="499.11" y="468.0" font-family="ui-sans-serif,-apple-system,BlinkMacSystemFont,'Segoe UI',Helvetica,Arial,sans-serif" font-size="11.5" fill="#fafafa" font-weight="500">Jest</text>
<rect x="545.3" y="448.0" width="85.1" height="32" rx="9" fill="#1c1c1f" stroke="#26262a"/>
<text x="557.26" y="468.0" font-family="ui-sans-serif,-apple-system,BlinkMacSystemFont,'Segoe UI',Helvetica,Arial,sans-serif" font-size="11.5" fill="#fafafa" font-weight="500">Playwright</text>
<rect x="638.4" y="448.0" width="95.4" height="32" rx="9" fill="#1c1c1f" stroke="#26262a"/>
<path d="M13.527.099C6.955-.744.942 3.9.099 10.473c-.843 6.572 3.8 12.584 10.373 13.428 6.573.843 12.587-3.801 13.428-10.374C24.744 6.955 20.101.943 13.527.099zm2.471 7.485a.855.855 0 0 0-.593.25l-4.453 4.453-.307-.307-.643-.643c4.389-4.376 5.18-4.418 5.996-3.753zm-4.863 4.861l4.44-4.44a.62.62 0 1 1 .847.903l-4.699 4.125-.588-.588zm.33.694l-1.1.238a.06.06 0 0 1-.067-.032.06.06 0 0 1 .01-.073l.645-.645.512.512zm-2.803-.459l1.172-1.172.879.878-1.979.426a.074.074 0 0 1-.085-.039.072.072 0 0 1 .013-.093zm-3.646 6.058a.076.076 0 0 1-.069-.083.077.077 0 0 1 .022-.046h.002l.946-.946 1.222 1.222-2.123-.147zm2.425-1.256a.228.228 0 0 0-.117.256l.203.865a.125.125 0 0 1-.211.117h-.003l-.934-.934-.294-.295 3.762-3.758 1.82-.393.874.874c-1.255 1.102-2.971 2.201-5.1 3.268zm5.279-3.428h-.002l-.839-.839 4.699-4.125a.952.952 0 0 0 .119-.127c-.148 1.345-2.029 3.245-3.977 5.091zm3.657-6.46l-.003-.002a1.822 1.822 0 0 1 2.459-2.684l-1.61 1.613a.119.119 0 0 0 0 .169l1.247 1.247a1.817 1.817 0 0 1-2.093-.343zm2.578 0a1.714 1.714 0 0 1-.271.218h-.001l-1.207-1.207 1.533-1.533c.661.72.637 1.832-.054 2.522zM18.855 6.05a.143.143 0 0 0-.053.157.416.416 0 0 1-.053.45.14.14 0 0 0 .023.197.141.141 0 0 0 .084.03.14.14 0 0 0 .106-.05.691.691 0 0 0 .087-.751.138.138 0 0 0-.194-.033z" fill="#FF6C37" transform="translate(650.37 456.50) scale(0.6250)"/>
<text x="672.37" y="468.0" font-family="ui-sans-serif,-apple-system,BlinkMacSystemFont,'Segoe UI',Helvetica,Arial,sans-serif" font-size="11.5" fill="#fafafa" font-weight="500">Postman</text>
<text x="44" y="496" font-family="ui-sans-serif,-apple-system,BlinkMacSystemFont,'Segoe UI',Helvetica,Arial,sans-serif" font-size="10.5" fill="#8a8a92" font-weight="600" letter-spacing="1.2">Practice</text>
<rect x="44.0" y="510.0" width="66.5" height="32" rx="9" fill="#1c1c1f" stroke="#26262a"/>
<text x="56" y="530.0" font-family="ui-sans-serif,-apple-system,BlinkMacSystemFont,'Segoe UI',Helvetica,Arial,sans-serif" font-size="11.5" fill="#fafafa" font-weight="500">DevOps</text>
<rect x="118.5" y="510.0" width="132.7" height="32" rx="9" fill="#1c1c1f" stroke="#26262a"/>
<text x="130.48" y="530.0" font-family="ui-sans-serif,-apple-system,BlinkMacSystemFont,'Segoe UI',Helvetica,Arial,sans-serif" font-size="11.5" fill="#fafafa" font-weight="500">Product Leadership</text>
<text x="44" y="558" font-family="ui-sans-serif,-apple-system,BlinkMacSystemFont,'Segoe UI',Helvetica,Arial,sans-serif" font-size="10.5" fill="#8a8a92" font-weight="600" letter-spacing="1.2">Team</text>
<rect x="44.0" y="572.0" width="56.5" height="32" rx="9" fill="#1c1c1f" stroke="#26262a"/>
<text x="56" y="592.0" font-family="ui-sans-serif,-apple-system,BlinkMacSystemFont,'Segoe UI',Helvetica,Arial,sans-serif" font-size="11.5" fill="#fafafa" font-weight="500">Slack</text>
<rect x="108.5" y="572.0" width="88.7" height="32" rx="9" fill="#1c1c1f" stroke="#26262a"/>
<path d="M20.317 4.3698a19.7913 19.7913 0 00-4.8851-1.5152.0741.0741 0 00-.0785.0371c-.211.3753-.4447.8648-.6083 1.2495-1.8447-.2762-3.68-.2762-5.4868 0-.1636-.3933-.4058-.8742-.6177-1.2495a.077.077 0 00-.0785-.037 19.7363 19.7363 0 00-4.8852 1.515.0699.0699 0 00-.0321.0277C.5334 9.0458-.319 13.5799.0992 18.0578a.0824.0824 0 00.0312.0561c2.0528 1.5076 4.0413 2.4228 5.9929 3.0294a.0777.0777 0 00.0842-.0276c.4616-.6304.8731-1.2952 1.226-1.9942a.076.076 0 00-.0416-.1057c-.6528-.2476-1.2743-.5495-1.8722-.8923a.077.077 0 01-.0076-.1277c.1258-.0943.2517-.1923.3718-.2914a.0743.0743 0 01.0776-.0105c3.9278 1.7933 8.18 1.7933 12.0614 0a.0739.0739 0 01.0785.0095c.1202.099.246.1981.3728.2924a.077.077 0 01-.0066.1276 12.2986 12.2986 0 01-1.873.8914.0766.0766 0 00-.0407.1067c.3604.698.7719 1.3628 1.225 1.9932a.076.076 0 00.0842.0286c1.961-.6067 3.9495-1.5219 6.0023-3.0294a.077.077 0 00.0313-.0552c.5004-5.177-.8382-9.6739-3.5485-13.6604a.061.061 0 00-.0312-.0286zM8.02 15.3312c-1.1825 0-2.1569-1.0857-2.1569-2.419 0-1.3332.9555-2.4189 2.157-2.4189 1.2108 0 2.1757 1.0952 2.1568 2.419 0 1.3332-.9555 2.4189-2.1569 2.4189zm7.9748 0c-1.1825 0-2.1569-1.0857-2.1569-2.419 0-1.3332.9554-2.4189 2.1569-2.4189 1.2108 0 2.1757 1.0952 2.1568 2.419 0 1.3332-.946 2.4189-2.1568 2.4189Z" fill="#5865F2" transform="translate(120.48 580.50) scale(0.6250)"/>
<text x="142.47500000000002" y="592.0" font-family="ui-sans-serif,-apple-system,BlinkMacSystemFont,'Segoe UI',Helvetica,Arial,sans-serif" font-size="11.5" fill="#fafafa" font-weight="500">Discord</text>
</svg>
