<svg xmlns="http://www.w3.org/2000/svg" width="880" height="392" viewBox="0 0 880 392" role="img">
<title>Stats for tanabooo</title>
<rect x="0.5" y="0.5" width="879" height="391" rx="14" fill="#101012" stroke="#26262a"/>
<text x="44.0" y="76" font-family="ui-sans-serif,-apple-system,BlinkMacSystemFont,'Segoe UI',Helvetica,Arial,sans-serif" font-size="34" fill="#fafafa" font-weight="700">1,834</text>
<text x="44.0" y="96" font-family="ui-sans-serif,-apple-system,BlinkMacSystemFont,'Segoe UI',Helvetica,Arial,sans-serif" font-size="12" fill="#fafafa" font-weight="600">Commits</text>
<text x="44.0" y="112" font-family="ui-sans-serif,-apple-system,BlinkMacSystemFont,'Segoe UI',Helvetica,Arial,sans-serif" font-size="10.5" fill="#8a8a92" font-weight="400">authored, all repositories</text>
<rect x="220.0" y="40" width="1" height="62" fill="#26262a"/>
<text x="242.0" y="76" font-family="ui-sans-serif,-apple-system,BlinkMacSystemFont,'Segoe UI',Helvetica,Arial,sans-serif" font-size="34" fill="#fafafa" font-weight="700">1,312</text>
<text x="242.0" y="96" font-family="ui-sans-serif,-apple-system,BlinkMacSystemFont,'Segoe UI',Helvetica,Arial,sans-serif" font-size="12" fill="#fafafa" font-weight="600">Contributions</text>
<text x="242.0" y="112" font-family="ui-sans-serif,-apple-system,BlinkMacSystemFont,'Segoe UI',Helvetica,Arial,sans-serif" font-size="10.5" fill="#8a8a92" font-weight="400">past 12 months</text>
<rect x="418.0" y="40" width="1" height="62" fill="#26262a"/>
<text x="440.0" y="76" font-family="ui-sans-serif,-apple-system,BlinkMacSystemFont,'Segoe UI',Helvetica,Arial,sans-serif" font-size="34" fill="#fafafa" font-weight="700">22</text>
<text x="440.0" y="96" font-family="ui-sans-serif,-apple-system,BlinkMacSystemFont,'Segoe UI',Helvetica,Arial,sans-serif" font-size="12" fill="#fafafa" font-weight="600">Longest streak</text>
<text x="440.0" y="112" font-family="ui-sans-serif,-apple-system,BlinkMacSystemFont,'Segoe UI',Helvetica,Arial,sans-serif" font-size="10.5" fill="#8a8a92" font-weight="400">consecutive days</text>
<rect x="616.0" y="40" width="1" height="62" fill="#26262a"/>
<text x="638.0" y="76" font-family="ui-sans-serif,-apple-system,BlinkMacSystemFont,'Segoe UI',Helvetica,Arial,sans-serif" font-size="34" fill="#fafafa" font-weight="700">18</text>
<text x="638.0" y="96" font-family="ui-sans-serif,-apple-system,BlinkMacSystemFont,'Segoe UI',Helvetica,Arial,sans-serif" font-size="12" fill="#fafafa" font-weight="600">Repositories</text>
<text x="638.0" y="112" font-family="ui-sans-serif,-apple-system,BlinkMacSystemFont,'Segoe UI',Helvetica,Arial,sans-serif" font-size="10.5" fill="#8a8a92" font-weight="400">owned, excluding forks</text>
<rect x="44" y="140" width="792" height="1" fill="#26262a"/>
<text x="44" y="168" font-family="ui-sans-serif,-apple-system,BlinkMacSystemFont,'Segoe UI',Helvetica,Arial,sans-serif" font-size="12" fill="#fafafa" font-weight="600">Languages by bytes</text>
<text x="836" y="168" font-family="ui-sans-serif,-apple-system,BlinkMacSystemFont,'Segoe UI',Helvetica,Arial,sans-serif" font-size="10.5" fill="#8a8a92" font-weight="400" text-anchor="end">private repositories included</text>
<text x="132" y="201" font-family="ui-sans-serif,-apple-system,BlinkMacSystemFont,'Segoe UI',Helvetica,Arial,sans-serif" font-size="11.5" fill="#fafafa" font-weight="600" text-anchor="end">TypeScript</text>
<rect x="146" y="190" width="626" height="14" rx="2" fill="#1c1c1f"/>
<path d="M146.00 190 H675.72 A4.00 4.00 0 0 1 679.72 194.00 V200.00 A4.00 4.00 0 0 1 675.72 204 H146.00 Z" fill="#ef4a5d"/>
<text x="836" y="201" font-family="ui-sans-serif,-apple-system,BlinkMacSystemFont,'Segoe UI',Helvetica,Arial,sans-serif" font-size="11" fill="#fafafa" font-weight="600" text-anchor="end" style="font-variant-numeric:tabular-nums">85.3%</text>
<text x="132" y="227" font-family="ui-sans-serif,-apple-system,BlinkMacSystemFont,'Segoe UI',Helvetica,Arial,sans-serif" font-size="11.5" fill="#8a8a92" font-weight="400" text-anchor="end">JavaScript</text>
<rect x="146" y="216" width="626" height="14" rx="2" fill="#1c1c1f"/>
<path d="M146.00 216 H174.18 A4.00 4.00 0 0 1 178.18 220.00 V226.00 A4.00 4.00 0 0 1 174.18 230 H146.00 Z" fill="#7d7d85"/>
<text x="836" y="227" font-family="ui-sans-serif,-apple-system,BlinkMacSystemFont,'Segoe UI',Helvetica,Arial,sans-serif" font-size="11" fill="#8a8a92" font-weight="400" text-anchor="end" style="font-variant-numeric:tabular-nums">5.1%</text>
<text x="132" y="253" font-family="ui-sans-serif,-apple-system,BlinkMacSystemFont,'Segoe UI',Helvetica,Arial,sans-serif" font-size="11.5" fill="#8a8a92" font-weight="400" text-anchor="end">Astro</text>
<rect x="146" y="242" width="626" height="14" rx="2" fill="#1c1c1f"/>
<path d="M146.00 242 H162.89 A4.00 4.00 0 0 1 166.89 246.00 V252.00 A4.00 4.00 0 0 1 162.89 256 H146.00 Z" fill="#7d7d85"/>
<text x="836" y="253" font-family="ui-sans-serif,-apple-system,BlinkMacSystemFont,'Segoe UI',Helvetica,Arial,sans-serif" font-size="11" fill="#8a8a92" font-weight="400" text-anchor="end" style="font-variant-numeric:tabular-nums">3.3%</text>
<text x="132" y="279" font-family="ui-sans-serif,-apple-system,BlinkMacSystemFont,'Segoe UI',Helvetica,Arial,sans-serif" font-size="11.5" fill="#8a8a92" font-weight="400" text-anchor="end">HTML</text>
<rect x="146" y="268" width="626" height="14" rx="2" fill="#1c1c1f"/>
<path d="M146.00 268 H154.37 A4.00 4.00 0 0 1 158.37 272.00 V278.00 A4.00 4.00 0 0 1 154.37 282 H146.00 Z" fill="#7d7d85"/>
<text x="836" y="279" font-family="ui-sans-serif,-apple-system,BlinkMacSystemFont,'Segoe UI',Helvetica,Arial,sans-serif" font-size="11" fill="#8a8a92" font-weight="400" text-anchor="end" style="font-variant-numeric:tabular-nums">2.0%</text>
<text x="132" y="305" font-family="ui-sans-serif,-apple-system,BlinkMacSystemFont,'Segoe UI',Helvetica,Arial,sans-serif" font-size="11.5" fill="#8a8a92" font-weight="400" text-anchor="end">PLpgSQL</text>
<rect x="146" y="294" width="626" height="14" rx="2" fill="#1c1c1f"/>
<path d="M146.00 294 H154.02 A4.00 4.00 0 0 1 158.02 298.00 V304.00 A4.00 4.00 0 0 1 154.02 308 H146.00 Z" fill="#7d7d85"/>
<text x="836" y="305" font-family="ui-sans-serif,-apple-system,BlinkMacSystemFont,'Segoe UI',Helvetica,Arial,sans-serif" font-size="11" fill="#8a8a92" font-weight="400" text-anchor="end" style="font-variant-numeric:tabular-nums">1.9%</text>
<text x="132" y="331" font-family="ui-sans-serif,-apple-system,BlinkMacSystemFont,'Segoe UI',Helvetica,Arial,sans-serif" font-size="11.5" fill="#8a8a92" font-weight="400" text-anchor="end">Go</text>
<rect x="146" y="320" width="626" height="14" rx="2" fill="#1c1c1f"/>
<path d="M146.00 320 H150.19 A4.00 4.00 0 0 1 154.19 324.00 V330.00 A4.00 4.00 0 0 1 150.19 334 H146.00 Z" fill="#7d7d85"/>
<text x="836" y="331" font-family="ui-sans-serif,-apple-system,BlinkMacSystemFont,'Segoe UI',Helvetica,Arial,sans-serif" font-size="11" fill="#8a8a92" font-weight="400" text-anchor="end" style="font-variant-numeric:tabular-nums">1.3%</text>
<text x="132" y="357" font-family="ui-sans-serif,-apple-system,BlinkMacSystemFont,'Segoe UI',Helvetica,Arial,sans-serif" font-size="11.5" fill="#8a8a92" font-weight="400" text-anchor="end">CSS</text>
<rect x="146" y="346" width="626" height="14" rx="2" fill="#1c1c1f"/>
<path d="M146.00 346 H149.20 A3.20 3.20 0 0 1 152.40 349.20 V356.80 A3.20 3.20 0 0 1 149.20 360 H146.00 Z" fill="#7d7d85"/>
<text x="836" y="357" font-family="ui-sans-serif,-apple-system,BlinkMacSystemFont,'Segoe UI',Helvetica,Arial,sans-serif" font-size="11" fill="#8a8a92" font-weight="400" text-anchor="end" style="font-variant-numeric:tabular-nums">1.0%</text>
</svg>
